<mxfile host="Electron" agent="Mozilla/5.0 (Windows NT 10.0; Win64; x64) AppleWebKit/537.36 (KHTML, like Gecko) draw.io/27.0.5 Chrome/134.0.6998.205 Electron/35.3.0 Safari/537.36" version="27.0.5">
  <diagram name="Page-1" id="v-uGQbgCCcU6a9BMxrRG">
    <mxGraphModel dx="10357" dy="5607" grid="1" gridSize="10" guides="1" tooltips="1" connect="1" arrows="1" fold="1" page="1" pageScale="1" pageWidth="850" pageHeight="1100" math="0" shadow="0">
      <root>
        <mxCell id="0" />
        <mxCell id="1" parent="0" />
        <mxCell id="QKTyw7EAt9zANaS0hbVl-26" value="" style="shape=table;startSize=0;container=1;collapsible=0;childLayout=tableLayout;" vertex="1" parent="1">
          <mxGeometry x="10" y="160" width="270" height="40" as="geometry" />
        </mxCell>
        <mxCell id="QKTyw7EAt9zANaS0hbVl-27" value="" style="shape=tableRow;horizontal=0;startSize=0;swimlaneHead=0;swimlaneBody=0;strokeColor=inherit;top=0;left=0;bottom=0;right=0;collapsible=0;dropTarget=0;fillColor=none;points=[[0,0.5],[1,0.5]];portConstraint=eastwest;" vertex="1" parent="QKTyw7EAt9zANaS0hbVl-26">
          <mxGeometry width="270" height="40" as="geometry" />
        </mxCell>
        <mxCell id="QKTyw7EAt9zANaS0hbVl-28" value="&lt;u&gt;id&lt;/u&gt;" style="shape=partialRectangle;html=1;whiteSpace=wrap;connectable=0;strokeColor=inherit;overflow=hidden;fillColor=none;top=0;left=0;bottom=0;right=0;pointerEvents=1;" vertex="1" parent="QKTyw7EAt9zANaS0hbVl-27">
          <mxGeometry width="60" height="40" as="geometry">
            <mxRectangle width="60" height="40" as="alternateBounds" />
          </mxGeometry>
        </mxCell>
        <mxCell id="QKTyw7EAt9zANaS0hbVl-29" value="name" style="shape=partialRectangle;html=1;whiteSpace=wrap;connectable=0;strokeColor=inherit;overflow=hidden;fillColor=none;top=0;left=0;bottom=0;right=0;pointerEvents=1;" vertex="1" parent="QKTyw7EAt9zANaS0hbVl-27">
          <mxGeometry x="60" width="60" height="40" as="geometry">
            <mxRectangle width="60" height="40" as="alternateBounds" />
          </mxGeometry>
        </mxCell>
        <mxCell id="QKTyw7EAt9zANaS0hbVl-30" value="address" style="shape=partialRectangle;html=1;whiteSpace=wrap;connectable=0;strokeColor=inherit;overflow=hidden;fillColor=none;top=0;left=0;bottom=0;right=0;pointerEvents=1;" vertex="1" parent="QKTyw7EAt9zANaS0hbVl-27">
          <mxGeometry x="120" width="60" height="40" as="geometry">
            <mxRectangle width="60" height="40" as="alternateBounds" />
          </mxGeometry>
        </mxCell>
        <mxCell id="QKTyw7EAt9zANaS0hbVl-31" value="contact_person" style="shape=partialRectangle;html=1;whiteSpace=wrap;connectable=0;strokeColor=inherit;overflow=hidden;fillColor=none;top=0;left=0;bottom=0;right=0;pointerEvents=1;" vertex="1" parent="QKTyw7EAt9zANaS0hbVl-27">
          <mxGeometry x="180" width="90" height="40" as="geometry">
            <mxRectangle width="90" height="40" as="alternateBounds" />
          </mxGeometry>
        </mxCell>
        <mxCell id="QKTyw7EAt9zANaS0hbVl-33" value="airline" style="text;html=1;align=center;verticalAlign=middle;whiteSpace=wrap;rounded=0;" vertex="1" parent="1">
          <mxGeometry y="120" width="60" height="30" as="geometry" />
        </mxCell>
        <mxCell id="QKTyw7EAt9zANaS0hbVl-35" value="" style="shape=table;startSize=0;container=1;collapsible=0;childLayout=tableLayout;" vertex="1" parent="1">
          <mxGeometry x="10" y="240" width="120" height="40" as="geometry" />
        </mxCell>
        <mxCell id="QKTyw7EAt9zANaS0hbVl-36" value="" style="shape=tableRow;horizontal=0;startSize=0;swimlaneHead=0;swimlaneBody=0;strokeColor=inherit;top=0;left=0;bottom=0;right=0;collapsible=0;dropTarget=0;fillColor=none;points=[[0,0.5],[1,0.5]];portConstraint=eastwest;" vertex="1" parent="QKTyw7EAt9zANaS0hbVl-35">
          <mxGeometry width="120" height="40" as="geometry" />
        </mxCell>
        <mxCell id="QKTyw7EAt9zANaS0hbVl-37" value="aid" style="shape=partialRectangle;html=1;whiteSpace=wrap;connectable=0;strokeColor=inherit;overflow=hidden;fillColor=none;top=0;left=0;bottom=0;right=0;pointerEvents=1;" vertex="1" parent="QKTyw7EAt9zANaS0hbVl-36">
          <mxGeometry width="60" height="40" as="geometry">
            <mxRectangle width="60" height="40" as="alternateBounds" />
          </mxGeometry>
        </mxCell>
        <mxCell id="QKTyw7EAt9zANaS0hbVl-38" value="phone" style="shape=partialRectangle;html=1;whiteSpace=wrap;connectable=0;strokeColor=inherit;overflow=hidden;fillColor=none;top=0;left=0;bottom=0;right=0;pointerEvents=1;" vertex="1" parent="QKTyw7EAt9zANaS0hbVl-36">
          <mxGeometry x="60" width="60" height="40" as="geometry">
            <mxRectangle width="60" height="40" as="alternateBounds" />
          </mxGeometry>
        </mxCell>
        <mxCell id="QKTyw7EAt9zANaS0hbVl-39" value="phones" style="text;html=1;align=center;verticalAlign=middle;whiteSpace=wrap;rounded=0;" vertex="1" parent="1">
          <mxGeometry x="10" y="210" width="60" height="30" as="geometry" />
        </mxCell>
        <mxCell id="QKTyw7EAt9zANaS0hbVl-40" value="" style="endArrow=none;dashed=1;html=1;dashPattern=1 3;strokeWidth=2;rounded=0;" edge="1" parent="1">
          <mxGeometry width="50" height="50" relative="1" as="geometry">
            <mxPoint x="30" y="270" as="sourcePoint" />
            <mxPoint x="50" y="270" as="targetPoint" />
          </mxGeometry>
        </mxCell>
        <mxCell id="QKTyw7EAt9zANaS0hbVl-41" style="edgeStyle=orthogonalEdgeStyle;rounded=0;orthogonalLoop=1;jettySize=auto;html=1;entryX=0;entryY=0.5;entryDx=0;entryDy=0;" edge="1" parent="1" source="QKTyw7EAt9zANaS0hbVl-36" target="QKTyw7EAt9zANaS0hbVl-27">
          <mxGeometry relative="1" as="geometry">
            <mxPoint x="-40" y="180" as="targetPoint" />
            <Array as="points">
              <mxPoint x="-30" y="260" />
              <mxPoint x="-30" y="180" />
            </Array>
          </mxGeometry>
        </mxCell>
        <mxCell id="QKTyw7EAt9zANaS0hbVl-44" value="" style="shape=table;startSize=0;container=1;collapsible=0;childLayout=tableLayout;" vertex="1" parent="1">
          <mxGeometry x="10" y="460" width="540" height="40" as="geometry" />
        </mxCell>
        <mxCell id="QKTyw7EAt9zANaS0hbVl-45" value="" style="shape=tableRow;horizontal=0;startSize=0;swimlaneHead=0;swimlaneBody=0;strokeColor=inherit;top=0;left=0;bottom=0;right=0;collapsible=0;dropTarget=0;fillColor=none;points=[[0,0.5],[1,0.5]];portConstraint=eastwest;" vertex="1" parent="QKTyw7EAt9zANaS0hbVl-44">
          <mxGeometry width="540" height="40" as="geometry" />
        </mxCell>
        <mxCell id="QKTyw7EAt9zANaS0hbVl-46" value="&lt;u&gt;id&lt;/u&gt;" style="shape=partialRectangle;html=1;whiteSpace=wrap;connectable=0;strokeColor=inherit;overflow=hidden;fillColor=none;top=0;left=0;bottom=0;right=0;pointerEvents=1;" vertex="1" parent="QKTyw7EAt9zANaS0hbVl-45">
          <mxGeometry width="60" height="40" as="geometry">
            <mxRectangle width="60" height="40" as="alternateBounds" />
          </mxGeometry>
        </mxCell>
        <mxCell id="QKTyw7EAt9zANaS0hbVl-47" value="name" style="shape=partialRectangle;html=1;whiteSpace=wrap;connectable=0;strokeColor=inherit;overflow=hidden;fillColor=none;top=0;left=0;bottom=0;right=0;pointerEvents=1;" vertex="1" parent="QKTyw7EAt9zANaS0hbVl-45">
          <mxGeometry x="60" width="60" height="40" as="geometry">
            <mxRectangle width="60" height="40" as="alternateBounds" />
          </mxGeometry>
        </mxCell>
        <mxCell id="QKTyw7EAt9zANaS0hbVl-48" value="address" style="shape=partialRectangle;html=1;whiteSpace=wrap;connectable=0;strokeColor=inherit;overflow=hidden;fillColor=none;top=0;left=0;bottom=0;right=0;pointerEvents=1;" vertex="1" parent="QKTyw7EAt9zANaS0hbVl-45">
          <mxGeometry x="120" width="60" height="40" as="geometry">
            <mxRectangle width="60" height="40" as="alternateBounds" />
          </mxGeometry>
        </mxCell>
        <mxCell id="QKTyw7EAt9zANaS0hbVl-49" value="position" style="shape=partialRectangle;html=1;whiteSpace=wrap;connectable=0;strokeColor=inherit;overflow=hidden;fillColor=none;top=0;left=0;bottom=0;right=0;pointerEvents=1;" vertex="1" parent="QKTyw7EAt9zANaS0hbVl-45">
          <mxGeometry x="180" width="60" height="40" as="geometry">
            <mxRectangle width="60" height="40" as="alternateBounds" />
          </mxGeometry>
        </mxCell>
        <mxCell id="QKTyw7EAt9zANaS0hbVl-50" value="year" style="shape=partialRectangle;html=1;whiteSpace=wrap;connectable=0;strokeColor=inherit;overflow=hidden;fillColor=none;top=0;left=0;bottom=0;right=0;pointerEvents=1;" vertex="1" parent="QKTyw7EAt9zANaS0hbVl-45">
          <mxGeometry x="240" width="60" height="40" as="geometry">
            <mxRectangle width="60" height="40" as="alternateBounds" />
          </mxGeometry>
        </mxCell>
        <mxCell id="QKTyw7EAt9zANaS0hbVl-51" value="month" style="shape=partialRectangle;html=1;whiteSpace=wrap;connectable=0;strokeColor=inherit;overflow=hidden;fillColor=none;top=0;left=0;bottom=0;right=0;pointerEvents=1;" vertex="1" parent="QKTyw7EAt9zANaS0hbVl-45">
          <mxGeometry x="300" width="60" height="40" as="geometry">
            <mxRectangle width="60" height="40" as="alternateBounds" />
          </mxGeometry>
        </mxCell>
        <mxCell id="QKTyw7EAt9zANaS0hbVl-52" value="day" style="shape=partialRectangle;html=1;whiteSpace=wrap;connectable=0;strokeColor=inherit;overflow=hidden;fillColor=none;top=0;left=0;bottom=0;right=0;pointerEvents=1;" vertex="1" parent="QKTyw7EAt9zANaS0hbVl-45">
          <mxGeometry x="360" width="60" height="40" as="geometry">
            <mxRectangle width="60" height="40" as="alternateBounds" />
          </mxGeometry>
        </mxCell>
        <mxCell id="QKTyw7EAt9zANaS0hbVl-53" value="gender" style="shape=partialRectangle;html=1;whiteSpace=wrap;connectable=0;strokeColor=inherit;overflow=hidden;fillColor=none;top=0;left=0;bottom=0;right=0;pointerEvents=1;" vertex="1" parent="QKTyw7EAt9zANaS0hbVl-45">
          <mxGeometry x="420" width="60" height="40" as="geometry">
            <mxRectangle width="60" height="40" as="alternateBounds" />
          </mxGeometry>
        </mxCell>
        <mxCell id="QKTyw7EAt9zANaS0hbVl-104" value="aid" style="shape=partialRectangle;html=1;whiteSpace=wrap;connectable=0;strokeColor=inherit;overflow=hidden;fillColor=none;top=0;left=0;bottom=0;right=0;pointerEvents=1;" vertex="1" parent="QKTyw7EAt9zANaS0hbVl-45">
          <mxGeometry x="480" width="60" height="40" as="geometry">
            <mxRectangle width="60" height="40" as="alternateBounds" />
          </mxGeometry>
        </mxCell>
        <mxCell id="QKTyw7EAt9zANaS0hbVl-54" value="employee" style="text;html=1;align=center;verticalAlign=middle;whiteSpace=wrap;rounded=0;" vertex="1" parent="1">
          <mxGeometry x="10" y="430" width="60" height="30" as="geometry" />
        </mxCell>
        <mxCell id="QKTyw7EAt9zANaS0hbVl-55" value="" style="shape=table;startSize=0;container=1;collapsible=0;childLayout=tableLayout;" vertex="1" parent="1">
          <mxGeometry x="10" y="550" width="130" height="40" as="geometry" />
        </mxCell>
        <mxCell id="QKTyw7EAt9zANaS0hbVl-56" value="" style="shape=tableRow;horizontal=0;startSize=0;swimlaneHead=0;swimlaneBody=0;strokeColor=inherit;top=0;left=0;bottom=0;right=0;collapsible=0;dropTarget=0;fillColor=none;points=[[0,0.5],[1,0.5]];portConstraint=eastwest;" vertex="1" parent="QKTyw7EAt9zANaS0hbVl-55">
          <mxGeometry width="130" height="40" as="geometry" />
        </mxCell>
        <mxCell id="QKTyw7EAt9zANaS0hbVl-57" value="eid" style="shape=partialRectangle;html=1;whiteSpace=wrap;connectable=0;strokeColor=inherit;overflow=hidden;fillColor=none;top=0;left=0;bottom=0;right=0;pointerEvents=1;" vertex="1" parent="QKTyw7EAt9zANaS0hbVl-56">
          <mxGeometry width="60" height="40" as="geometry">
            <mxRectangle width="60" height="40" as="alternateBounds" />
          </mxGeometry>
        </mxCell>
        <mxCell id="QKTyw7EAt9zANaS0hbVl-58" value="qualification" style="shape=partialRectangle;html=1;whiteSpace=wrap;connectable=0;strokeColor=inherit;overflow=hidden;fillColor=none;top=0;left=0;bottom=0;right=0;pointerEvents=1;" vertex="1" parent="QKTyw7EAt9zANaS0hbVl-56">
          <mxGeometry x="60" width="70" height="40" as="geometry">
            <mxRectangle width="70" height="40" as="alternateBounds" />
          </mxGeometry>
        </mxCell>
        <mxCell id="QKTyw7EAt9zANaS0hbVl-59" value="qualification" style="text;html=1;align=center;verticalAlign=middle;whiteSpace=wrap;rounded=0;" vertex="1" parent="1">
          <mxGeometry x="10" y="520" width="60" height="30" as="geometry" />
        </mxCell>
        <mxCell id="QKTyw7EAt9zANaS0hbVl-61" value="" style="endArrow=none;dashed=1;html=1;dashPattern=1 3;strokeWidth=2;rounded=0;" edge="1" parent="1">
          <mxGeometry width="50" height="50" relative="1" as="geometry">
            <mxPoint x="30" y="580" as="sourcePoint" />
            <mxPoint x="50" y="580" as="targetPoint" />
          </mxGeometry>
        </mxCell>
        <mxCell id="QKTyw7EAt9zANaS0hbVl-62" style="edgeStyle=orthogonalEdgeStyle;rounded=0;orthogonalLoop=1;jettySize=auto;html=1;entryX=0;entryY=0.5;entryDx=0;entryDy=0;" edge="1" parent="1" source="QKTyw7EAt9zANaS0hbVl-56" target="QKTyw7EAt9zANaS0hbVl-45">
          <mxGeometry relative="1" as="geometry">
            <Array as="points">
              <mxPoint x="-10" y="570" />
              <mxPoint x="-10" y="480" />
            </Array>
          </mxGeometry>
        </mxCell>
        <mxCell id="QKTyw7EAt9zANaS0hbVl-64" value="" style="shape=table;startSize=0;container=1;collapsible=0;childLayout=tableLayout;" vertex="1" parent="1">
          <mxGeometry y="660" width="240" height="40" as="geometry" />
        </mxCell>
        <mxCell id="QKTyw7EAt9zANaS0hbVl-65" value="" style="shape=tableRow;horizontal=0;startSize=0;swimlaneHead=0;swimlaneBody=0;strokeColor=inherit;top=0;left=0;bottom=0;right=0;collapsible=0;dropTarget=0;fillColor=none;points=[[0,0.5],[1,0.5]];portConstraint=eastwest;" vertex="1" parent="QKTyw7EAt9zANaS0hbVl-64">
          <mxGeometry width="240" height="40" as="geometry" />
        </mxCell>
        <mxCell id="QKTyw7EAt9zANaS0hbVl-66" value="&lt;u&gt;id&lt;/u&gt;" style="shape=partialRectangle;html=1;whiteSpace=wrap;connectable=0;strokeColor=inherit;overflow=hidden;fillColor=none;top=0;left=0;bottom=0;right=0;pointerEvents=1;" vertex="1" parent="QKTyw7EAt9zANaS0hbVl-65">
          <mxGeometry width="60" height="40" as="geometry">
            <mxRectangle width="60" height="40" as="alternateBounds" />
          </mxGeometry>
        </mxCell>
        <mxCell id="QKTyw7EAt9zANaS0hbVl-67" value="model" style="shape=partialRectangle;html=1;whiteSpace=wrap;connectable=0;strokeColor=inherit;overflow=hidden;fillColor=none;top=0;left=0;bottom=0;right=0;pointerEvents=1;" vertex="1" parent="QKTyw7EAt9zANaS0hbVl-65">
          <mxGeometry x="60" width="60" height="40" as="geometry">
            <mxRectangle width="60" height="40" as="alternateBounds" />
          </mxGeometry>
        </mxCell>
        <mxCell id="QKTyw7EAt9zANaS0hbVl-68" value="capacity" style="shape=partialRectangle;html=1;whiteSpace=wrap;connectable=0;strokeColor=inherit;overflow=hidden;fillColor=none;top=0;left=0;bottom=0;right=0;pointerEvents=1;" vertex="1" parent="QKTyw7EAt9zANaS0hbVl-65">
          <mxGeometry x="120" width="60" height="40" as="geometry">
            <mxRectangle width="60" height="40" as="alternateBounds" />
          </mxGeometry>
        </mxCell>
        <mxCell id="QKTyw7EAt9zANaS0hbVl-98" value="aid" style="shape=partialRectangle;html=1;whiteSpace=wrap;connectable=0;strokeColor=inherit;overflow=hidden;fillColor=none;top=0;left=0;bottom=0;right=0;pointerEvents=1;" vertex="1" parent="QKTyw7EAt9zANaS0hbVl-65">
          <mxGeometry x="180" width="60" height="40" as="geometry">
            <mxRectangle width="60" height="40" as="alternateBounds" />
          </mxGeometry>
        </mxCell>
        <mxCell id="QKTyw7EAt9zANaS0hbVl-69" value="aircaft" style="text;html=1;align=center;verticalAlign=middle;whiteSpace=wrap;rounded=0;" vertex="1" parent="1">
          <mxGeometry y="630" width="60" height="30" as="geometry" />
        </mxCell>
        <mxCell id="QKTyw7EAt9zANaS0hbVl-70" value="" style="shape=table;startSize=0;container=1;collapsible=0;childLayout=tableLayout;" vertex="1" parent="1">
          <mxGeometry y="830" width="320" height="40" as="geometry" />
        </mxCell>
        <mxCell id="QKTyw7EAt9zANaS0hbVl-71" value="" style="shape=tableRow;horizontal=0;startSize=0;swimlaneHead=0;swimlaneBody=0;strokeColor=inherit;top=0;left=0;bottom=0;right=0;collapsible=0;dropTarget=0;fillColor=none;points=[[0,0.5],[1,0.5]];portConstraint=eastwest;" vertex="1" parent="QKTyw7EAt9zANaS0hbVl-70">
          <mxGeometry width="320" height="40" as="geometry" />
        </mxCell>
        <mxCell id="QKTyw7EAt9zANaS0hbVl-72" value="&lt;u&gt;id&lt;/u&gt;" style="shape=partialRectangle;html=1;whiteSpace=wrap;connectable=0;strokeColor=inherit;overflow=hidden;fillColor=none;top=0;left=0;bottom=0;right=0;pointerEvents=1;" vertex="1" parent="QKTyw7EAt9zANaS0hbVl-71">
          <mxGeometry width="60" height="40" as="geometry">
            <mxRectangle width="60" height="40" as="alternateBounds" />
          </mxGeometry>
        </mxCell>
        <mxCell id="QKTyw7EAt9zANaS0hbVl-73" value="distance" style="shape=partialRectangle;html=1;whiteSpace=wrap;connectable=0;strokeColor=inherit;overflow=hidden;fillColor=none;top=0;left=0;bottom=0;right=0;pointerEvents=1;" vertex="1" parent="QKTyw7EAt9zANaS0hbVl-71">
          <mxGeometry x="60" width="60" height="40" as="geometry">
            <mxRectangle width="60" height="40" as="alternateBounds" />
          </mxGeometry>
        </mxCell>
        <mxCell id="QKTyw7EAt9zANaS0hbVl-74" value="destination" style="shape=partialRectangle;html=1;whiteSpace=wrap;connectable=0;strokeColor=inherit;overflow=hidden;fillColor=none;top=0;left=0;bottom=0;right=0;pointerEvents=1;" vertex="1" parent="QKTyw7EAt9zANaS0hbVl-71">
          <mxGeometry x="120" width="70" height="40" as="geometry">
            <mxRectangle width="70" height="40" as="alternateBounds" />
          </mxGeometry>
        </mxCell>
        <mxCell id="QKTyw7EAt9zANaS0hbVl-75" value="orgin" style="shape=partialRectangle;html=1;whiteSpace=wrap;connectable=0;strokeColor=inherit;overflow=hidden;fillColor=none;top=0;left=0;bottom=0;right=0;pointerEvents=1;" vertex="1" parent="QKTyw7EAt9zANaS0hbVl-71">
          <mxGeometry x="190" width="50" height="40" as="geometry">
            <mxRectangle width="50" height="40" as="alternateBounds" />
          </mxGeometry>
        </mxCell>
        <mxCell id="QKTyw7EAt9zANaS0hbVl-76" value="classification" style="shape=partialRectangle;html=1;whiteSpace=wrap;connectable=0;strokeColor=inherit;overflow=hidden;fillColor=none;top=0;left=0;bottom=0;right=0;pointerEvents=1;" vertex="1" parent="QKTyw7EAt9zANaS0hbVl-71">
          <mxGeometry x="240" width="80" height="40" as="geometry">
            <mxRectangle width="80" height="40" as="alternateBounds" />
          </mxGeometry>
        </mxCell>
        <mxCell id="QKTyw7EAt9zANaS0hbVl-77" value="route" style="text;html=1;align=center;verticalAlign=middle;whiteSpace=wrap;rounded=0;" vertex="1" parent="1">
          <mxGeometry y="800" width="60" height="30" as="geometry" />
        </mxCell>
        <mxCell id="QKTyw7EAt9zANaS0hbVl-78" value="" style="shape=table;startSize=0;container=1;collapsible=0;childLayout=tableLayout;" vertex="1" parent="1">
          <mxGeometry x="10" y="330" width="290" height="40" as="geometry" />
        </mxCell>
        <mxCell id="QKTyw7EAt9zANaS0hbVl-79" value="" style="shape=tableRow;horizontal=0;startSize=0;swimlaneHead=0;swimlaneBody=0;strokeColor=inherit;top=0;left=0;bottom=0;right=0;collapsible=0;dropTarget=0;fillColor=none;points=[[0,0.5],[1,0.5]];portConstraint=eastwest;" vertex="1" parent="QKTyw7EAt9zANaS0hbVl-78">
          <mxGeometry width="290" height="40" as="geometry" />
        </mxCell>
        <mxCell id="QKTyw7EAt9zANaS0hbVl-80" value="&lt;u&gt;id&lt;/u&gt;" style="shape=partialRectangle;html=1;whiteSpace=wrap;connectable=0;strokeColor=inherit;overflow=hidden;fillColor=none;top=0;left=0;bottom=0;right=0;pointerEvents=1;" vertex="1" parent="QKTyw7EAt9zANaS0hbVl-79">
          <mxGeometry width="60" height="40" as="geometry">
            <mxRectangle width="60" height="40" as="alternateBounds" />
          </mxGeometry>
        </mxCell>
        <mxCell id="QKTyw7EAt9zANaS0hbVl-81" value="amount" style="shape=partialRectangle;html=1;whiteSpace=wrap;connectable=0;strokeColor=inherit;overflow=hidden;fillColor=none;top=0;left=0;bottom=0;right=0;pointerEvents=1;" vertex="1" parent="QKTyw7EAt9zANaS0hbVl-79">
          <mxGeometry x="60" width="60" height="40" as="geometry">
            <mxRectangle width="60" height="40" as="alternateBounds" />
          </mxGeometry>
        </mxCell>
        <mxCell id="QKTyw7EAt9zANaS0hbVl-82" value="description" style="shape=partialRectangle;html=1;whiteSpace=wrap;connectable=0;strokeColor=inherit;overflow=hidden;fillColor=none;top=0;left=0;bottom=0;right=0;pointerEvents=1;" vertex="1" parent="QKTyw7EAt9zANaS0hbVl-79">
          <mxGeometry x="120" width="70" height="40" as="geometry">
            <mxRectangle width="70" height="40" as="alternateBounds" />
          </mxGeometry>
        </mxCell>
        <mxCell id="QKTyw7EAt9zANaS0hbVl-83" value="date" style="shape=partialRectangle;html=1;whiteSpace=wrap;connectable=0;strokeColor=inherit;overflow=hidden;fillColor=none;top=0;left=0;bottom=0;right=0;pointerEvents=1;" vertex="1" parent="QKTyw7EAt9zANaS0hbVl-79">
          <mxGeometry x="190" width="50" height="40" as="geometry">
            <mxRectangle width="50" height="40" as="alternateBounds" />
          </mxGeometry>
        </mxCell>
        <mxCell id="QKTyw7EAt9zANaS0hbVl-107" value="aid" style="shape=partialRectangle;html=1;whiteSpace=wrap;connectable=0;strokeColor=inherit;overflow=hidden;fillColor=none;top=0;left=0;bottom=0;right=0;pointerEvents=1;" vertex="1" parent="QKTyw7EAt9zANaS0hbVl-79">
          <mxGeometry x="240" width="50" height="40" as="geometry">
            <mxRectangle width="50" height="40" as="alternateBounds" />
          </mxGeometry>
        </mxCell>
        <mxCell id="QKTyw7EAt9zANaS0hbVl-84" value="transaction" style="text;html=1;align=center;verticalAlign=middle;whiteSpace=wrap;rounded=0;" vertex="1" parent="1">
          <mxGeometry x="10" y="300" width="60" height="30" as="geometry" />
        </mxCell>
        <mxCell id="QKTyw7EAt9zANaS0hbVl-85" value="" style="shape=table;startSize=0;container=1;collapsible=0;childLayout=tableLayout;" vertex="1" parent="1">
          <mxGeometry y="740" width="300" height="40" as="geometry" />
        </mxCell>
        <mxCell id="QKTyw7EAt9zANaS0hbVl-86" value="" style="shape=tableRow;horizontal=0;startSize=0;swimlaneHead=0;swimlaneBody=0;strokeColor=inherit;top=0;left=0;bottom=0;right=0;collapsible=0;dropTarget=0;fillColor=none;points=[[0,0.5],[1,0.5]];portConstraint=eastwest;" vertex="1" parent="QKTyw7EAt9zANaS0hbVl-85">
          <mxGeometry width="300" height="40" as="geometry" />
        </mxCell>
        <mxCell id="QKTyw7EAt9zANaS0hbVl-87" value="aid" style="shape=partialRectangle;html=1;whiteSpace=wrap;connectable=0;strokeColor=inherit;overflow=hidden;fillColor=none;top=0;left=0;bottom=0;right=0;pointerEvents=1;" vertex="1" parent="QKTyw7EAt9zANaS0hbVl-86">
          <mxGeometry width="60" height="40" as="geometry">
            <mxRectangle width="60" height="40" as="alternateBounds" />
          </mxGeometry>
        </mxCell>
        <mxCell id="QKTyw7EAt9zANaS0hbVl-88" value="maj_pilot" style="shape=partialRectangle;html=1;whiteSpace=wrap;connectable=0;strokeColor=inherit;overflow=hidden;fillColor=none;top=0;left=0;bottom=0;right=0;pointerEvents=1;" vertex="1" parent="QKTyw7EAt9zANaS0hbVl-86">
          <mxGeometry x="60" width="60" height="40" as="geometry">
            <mxRectangle width="60" height="40" as="alternateBounds" />
          </mxGeometry>
        </mxCell>
        <mxCell id="QKTyw7EAt9zANaS0hbVl-89" value="assis_pilot" style="shape=partialRectangle;html=1;whiteSpace=wrap;connectable=0;strokeColor=inherit;overflow=hidden;fillColor=none;top=0;left=0;bottom=0;right=0;pointerEvents=1;" vertex="1" parent="QKTyw7EAt9zANaS0hbVl-86">
          <mxGeometry x="120" width="60" height="40" as="geometry">
            <mxRectangle width="60" height="40" as="alternateBounds" />
          </mxGeometry>
        </mxCell>
        <mxCell id="QKTyw7EAt9zANaS0hbVl-90" value="host1" style="shape=partialRectangle;html=1;whiteSpace=wrap;connectable=0;strokeColor=inherit;overflow=hidden;fillColor=none;top=0;left=0;bottom=0;right=0;pointerEvents=1;" vertex="1" parent="QKTyw7EAt9zANaS0hbVl-86">
          <mxGeometry x="180" width="60" height="40" as="geometry">
            <mxRectangle width="60" height="40" as="alternateBounds" />
          </mxGeometry>
        </mxCell>
        <mxCell id="QKTyw7EAt9zANaS0hbVl-91" value="host2" style="shape=partialRectangle;html=1;whiteSpace=wrap;connectable=0;strokeColor=inherit;overflow=hidden;fillColor=none;top=0;left=0;bottom=0;right=0;pointerEvents=1;" vertex="1" parent="QKTyw7EAt9zANaS0hbVl-86">
          <mxGeometry x="240" width="60" height="40" as="geometry">
            <mxRectangle width="60" height="40" as="alternateBounds" />
          </mxGeometry>
        </mxCell>
        <mxCell id="QKTyw7EAt9zANaS0hbVl-92" value="crew" style="text;html=1;align=center;verticalAlign=middle;whiteSpace=wrap;rounded=0;" vertex="1" parent="1">
          <mxGeometry y="710" width="60" height="30" as="geometry" />
        </mxCell>
        <mxCell id="QKTyw7EAt9zANaS0hbVl-94" value="" style="endArrow=none;dashed=1;html=1;dashPattern=1 3;strokeWidth=2;rounded=0;" edge="1" parent="1">
          <mxGeometry width="50" height="50" relative="1" as="geometry">
            <mxPoint x="20" y="770" as="sourcePoint" />
            <mxPoint x="40" y="770" as="targetPoint" />
          </mxGeometry>
        </mxCell>
        <mxCell id="QKTyw7EAt9zANaS0hbVl-95" style="edgeStyle=orthogonalEdgeStyle;rounded=0;orthogonalLoop=1;jettySize=auto;html=1;entryX=0;entryY=0.5;entryDx=0;entryDy=0;" edge="1" parent="1" source="QKTyw7EAt9zANaS0hbVl-86" target="QKTyw7EAt9zANaS0hbVl-65">
          <mxGeometry relative="1" as="geometry" />
        </mxCell>
        <mxCell id="QKTyw7EAt9zANaS0hbVl-96" value="" style="endArrow=none;html=1;rounded=0;" edge="1" parent="1">
          <mxGeometry width="50" height="50" relative="1" as="geometry">
            <mxPoint x="20" y="773" as="sourcePoint" />
            <mxPoint x="110" y="773" as="targetPoint" />
          </mxGeometry>
        </mxCell>
        <mxCell id="QKTyw7EAt9zANaS0hbVl-99" value="" style="endArrow=none;dashed=1;html=1;dashPattern=1 3;strokeWidth=2;rounded=0;" edge="1" parent="1">
          <mxGeometry width="50" height="50" relative="1" as="geometry">
            <mxPoint x="200" y="690" as="sourcePoint" />
            <mxPoint x="220" y="690" as="targetPoint" />
          </mxGeometry>
        </mxCell>
        <mxCell id="QKTyw7EAt9zANaS0hbVl-103" style="edgeStyle=orthogonalEdgeStyle;rounded=0;orthogonalLoop=1;jettySize=auto;html=1;entryX=0.003;entryY=0.675;entryDx=0;entryDy=0;entryPerimeter=0;" edge="1" parent="1" source="QKTyw7EAt9zANaS0hbVl-65" target="QKTyw7EAt9zANaS0hbVl-27">
          <mxGeometry relative="1" as="geometry">
            <mxPoint x="330" y="610" as="targetPoint" />
            <Array as="points">
              <mxPoint x="330" y="680" />
              <mxPoint x="330" y="620" />
              <mxPoint x="-40" y="620" />
              <mxPoint x="-40" y="187" />
            </Array>
          </mxGeometry>
        </mxCell>
        <mxCell id="QKTyw7EAt9zANaS0hbVl-105" value="" style="endArrow=none;dashed=1;html=1;dashPattern=1 3;strokeWidth=2;rounded=0;" edge="1" parent="1">
          <mxGeometry width="50" height="50" relative="1" as="geometry">
            <mxPoint x="510" y="490" as="sourcePoint" />
            <mxPoint x="530" y="490" as="targetPoint" />
          </mxGeometry>
        </mxCell>
        <mxCell id="QKTyw7EAt9zANaS0hbVl-106" style="edgeStyle=orthogonalEdgeStyle;rounded=0;orthogonalLoop=1;jettySize=auto;html=1;entryX=0;entryY=0.5;entryDx=0;entryDy=0;" edge="1" parent="1" source="QKTyw7EAt9zANaS0hbVl-45" target="QKTyw7EAt9zANaS0hbVl-27">
          <mxGeometry relative="1" as="geometry">
            <Array as="points">
              <mxPoint x="510" y="410" />
              <mxPoint x="-10" y="410" />
              <mxPoint x="-10" y="180" />
            </Array>
          </mxGeometry>
        </mxCell>
        <mxCell id="QKTyw7EAt9zANaS0hbVl-108" value="" style="endArrow=none;dashed=1;html=1;dashPattern=1 3;strokeWidth=2;rounded=0;" edge="1" parent="1">
          <mxGeometry width="50" height="50" relative="1" as="geometry">
            <mxPoint x="270" y="360" as="sourcePoint" />
            <mxPoint x="290" y="360" as="targetPoint" />
          </mxGeometry>
        </mxCell>
        <mxCell id="QKTyw7EAt9zANaS0hbVl-109" style="edgeStyle=orthogonalEdgeStyle;rounded=0;orthogonalLoop=1;jettySize=auto;html=1;entryX=0;entryY=0.5;entryDx=0;entryDy=0;" edge="1" parent="1" source="QKTyw7EAt9zANaS0hbVl-79" target="QKTyw7EAt9zANaS0hbVl-27">
          <mxGeometry relative="1" as="geometry">
            <Array as="points">
              <mxPoint x="320" y="350" />
              <mxPoint x="320" y="300" />
              <mxPoint x="-20" y="300" />
              <mxPoint x="-20" y="180" />
            </Array>
          </mxGeometry>
        </mxCell>
        <mxCell id="QKTyw7EAt9zANaS0hbVl-111" value="" style="shape=table;startSize=0;container=1;collapsible=0;childLayout=tableLayout;" vertex="1" parent="1">
          <mxGeometry y="940" width="440" height="40" as="geometry" />
        </mxCell>
        <mxCell id="QKTyw7EAt9zANaS0hbVl-112" value="" style="shape=tableRow;horizontal=0;startSize=0;swimlaneHead=0;swimlaneBody=0;strokeColor=inherit;top=0;left=0;bottom=0;right=0;collapsible=0;dropTarget=0;fillColor=none;points=[[0,0.5],[1,0.5]];portConstraint=eastwest;" vertex="1" parent="QKTyw7EAt9zANaS0hbVl-111">
          <mxGeometry width="440" height="40" as="geometry" />
        </mxCell>
        <mxCell id="QKTyw7EAt9zANaS0hbVl-113" value="aid" style="shape=partialRectangle;html=1;whiteSpace=wrap;connectable=0;strokeColor=inherit;overflow=hidden;fillColor=none;top=0;left=0;bottom=0;right=0;pointerEvents=1;" vertex="1" parent="QKTyw7EAt9zANaS0hbVl-112">
          <mxGeometry width="60" height="40" as="geometry">
            <mxRectangle width="60" height="40" as="alternateBounds" />
          </mxGeometry>
        </mxCell>
        <mxCell id="QKTyw7EAt9zANaS0hbVl-114" value="rid" style="shape=partialRectangle;html=1;whiteSpace=wrap;connectable=0;strokeColor=inherit;overflow=hidden;fillColor=none;top=0;left=0;bottom=0;right=0;pointerEvents=1;" vertex="1" parent="QKTyw7EAt9zANaS0hbVl-112">
          <mxGeometry x="60" width="60" height="40" as="geometry">
            <mxRectangle width="60" height="40" as="alternateBounds" />
          </mxGeometry>
        </mxCell>
        <mxCell id="QKTyw7EAt9zANaS0hbVl-121" value="num_of_passengers" style="shape=partialRectangle;html=1;whiteSpace=wrap;connectable=0;strokeColor=inherit;overflow=hidden;fillColor=none;top=0;left=0;bottom=0;right=0;pointerEvents=1;" vertex="1" parent="QKTyw7EAt9zANaS0hbVl-112">
          <mxGeometry x="120" width="120" height="40" as="geometry">
            <mxRectangle width="120" height="40" as="alternateBounds" />
          </mxGeometry>
        </mxCell>
        <mxCell id="QKTyw7EAt9zANaS0hbVl-122" value="price" style="shape=partialRectangle;html=1;whiteSpace=wrap;connectable=0;strokeColor=inherit;overflow=hidden;fillColor=none;top=0;left=0;bottom=0;right=0;pointerEvents=1;" vertex="1" parent="QKTyw7EAt9zANaS0hbVl-112">
          <mxGeometry x="240" width="40" height="40" as="geometry">
            <mxRectangle width="40" height="40" as="alternateBounds" />
          </mxGeometry>
        </mxCell>
        <mxCell id="QKTyw7EAt9zANaS0hbVl-123" value="departure" style="shape=partialRectangle;html=1;whiteSpace=wrap;connectable=0;strokeColor=inherit;overflow=hidden;fillColor=none;top=0;left=0;bottom=0;right=0;pointerEvents=1;" vertex="1" parent="QKTyw7EAt9zANaS0hbVl-112">
          <mxGeometry x="280" width="60" height="40" as="geometry">
            <mxRectangle width="60" height="40" as="alternateBounds" />
          </mxGeometry>
        </mxCell>
        <mxCell id="QKTyw7EAt9zANaS0hbVl-124" value="arrival" style="shape=partialRectangle;html=1;whiteSpace=wrap;connectable=0;strokeColor=inherit;overflow=hidden;fillColor=none;top=0;left=0;bottom=0;right=0;pointerEvents=1;" vertex="1" parent="QKTyw7EAt9zANaS0hbVl-112">
          <mxGeometry x="340" width="50" height="40" as="geometry">
            <mxRectangle width="50" height="40" as="alternateBounds" />
          </mxGeometry>
        </mxCell>
        <mxCell id="QKTyw7EAt9zANaS0hbVl-125" value="duration" style="shape=partialRectangle;html=1;whiteSpace=wrap;connectable=0;strokeColor=inherit;overflow=hidden;fillColor=none;top=0;left=0;bottom=0;right=0;pointerEvents=1;" vertex="1" parent="QKTyw7EAt9zANaS0hbVl-112">
          <mxGeometry x="390" width="50" height="40" as="geometry">
            <mxRectangle width="50" height="40" as="alternateBounds" />
          </mxGeometry>
        </mxCell>
        <mxCell id="QKTyw7EAt9zANaS0hbVl-115" value="assigned route" style="text;html=1;align=center;verticalAlign=middle;whiteSpace=wrap;rounded=0;" vertex="1" parent="1">
          <mxGeometry y="910" width="60" height="30" as="geometry" />
        </mxCell>
        <mxCell id="QKTyw7EAt9zANaS0hbVl-116" value="" style="endArrow=none;dashed=1;html=1;dashPattern=1 3;strokeWidth=2;rounded=0;" edge="1" parent="1">
          <mxGeometry width="50" height="50" relative="1" as="geometry">
            <mxPoint x="20" y="970" as="sourcePoint" />
            <mxPoint x="40" y="970" as="targetPoint" />
          </mxGeometry>
        </mxCell>
        <mxCell id="QKTyw7EAt9zANaS0hbVl-117" value="" style="endArrow=none;dashed=1;html=1;dashPattern=1 3;strokeWidth=2;rounded=0;" edge="1" parent="1">
          <mxGeometry width="50" height="50" relative="1" as="geometry">
            <mxPoint x="80" y="970" as="sourcePoint" />
            <mxPoint x="100" y="970" as="targetPoint" />
          </mxGeometry>
        </mxCell>
        <mxCell id="QKTyw7EAt9zANaS0hbVl-118" value="" style="endArrow=none;html=1;rounded=0;" edge="1" parent="1">
          <mxGeometry width="50" height="50" relative="1" as="geometry">
            <mxPoint x="20" y="971" as="sourcePoint" />
            <mxPoint x="100" y="971" as="targetPoint" />
          </mxGeometry>
        </mxCell>
        <mxCell id="QKTyw7EAt9zANaS0hbVl-119" style="edgeStyle=orthogonalEdgeStyle;rounded=0;orthogonalLoop=1;jettySize=auto;html=1;entryX=0;entryY=0.5;entryDx=0;entryDy=0;" edge="1" parent="1" source="QKTyw7EAt9zANaS0hbVl-112" target="QKTyw7EAt9zANaS0hbVl-65">
          <mxGeometry relative="1" as="geometry">
            <Array as="points">
              <mxPoint x="-40" y="960" />
              <mxPoint x="-40" y="680" />
            </Array>
          </mxGeometry>
        </mxCell>
        <mxCell id="QKTyw7EAt9zANaS0hbVl-120" style="edgeStyle=orthogonalEdgeStyle;rounded=0;orthogonalLoop=1;jettySize=auto;html=1;entryX=0;entryY=0.5;entryDx=0;entryDy=0;" edge="1" parent="1" source="QKTyw7EAt9zANaS0hbVl-112" target="QKTyw7EAt9zANaS0hbVl-71">
          <mxGeometry relative="1" as="geometry">
            <Array as="points">
              <mxPoint x="90" y="900" />
              <mxPoint x="-20" y="900" />
              <mxPoint x="-20" y="850" />
            </Array>
          </mxGeometry>
        </mxCell>
        <mxCell id="QKTyw7EAt9zANaS0hbVl-127" value="hospital" style="text;html=1;align=center;verticalAlign=middle;whiteSpace=wrap;rounded=0;" vertex="1" parent="1">
          <mxGeometry x="870" y="120" width="60" height="30" as="geometry" />
        </mxCell>
        <mxCell id="QKTyw7EAt9zANaS0hbVl-129" value="" style="shape=table;startSize=0;container=1;collapsible=0;childLayout=tableLayout;" vertex="1" parent="1">
          <mxGeometry x="860" y="200" width="300" height="40" as="geometry" />
        </mxCell>
        <mxCell id="QKTyw7EAt9zANaS0hbVl-130" value="" style="shape=tableRow;horizontal=0;startSize=0;swimlaneHead=0;swimlaneBody=0;strokeColor=inherit;top=0;left=0;bottom=0;right=0;collapsible=0;dropTarget=0;fillColor=none;points=[[0,0.5],[1,0.5]];portConstraint=eastwest;" vertex="1" parent="QKTyw7EAt9zANaS0hbVl-129">
          <mxGeometry width="300" height="40" as="geometry" />
        </mxCell>
        <mxCell id="QKTyw7EAt9zANaS0hbVl-131" value="&lt;u&gt;id&lt;/u&gt;" style="shape=partialRectangle;html=1;whiteSpace=wrap;connectable=0;strokeColor=inherit;overflow=hidden;fillColor=none;top=0;left=0;bottom=0;right=0;pointerEvents=1;" vertex="1" parent="QKTyw7EAt9zANaS0hbVl-130">
          <mxGeometry width="60" height="40" as="geometry">
            <mxRectangle width="60" height="40" as="alternateBounds" />
          </mxGeometry>
        </mxCell>
        <mxCell id="QKTyw7EAt9zANaS0hbVl-132" value="name" style="shape=partialRectangle;html=1;whiteSpace=wrap;connectable=0;strokeColor=inherit;overflow=hidden;fillColor=none;top=0;left=0;bottom=0;right=0;pointerEvents=1;" vertex="1" parent="QKTyw7EAt9zANaS0hbVl-130">
          <mxGeometry x="60" width="60" height="40" as="geometry">
            <mxRectangle width="60" height="40" as="alternateBounds" />
          </mxGeometry>
        </mxCell>
        <mxCell id="QKTyw7EAt9zANaS0hbVl-133" value="DOB" style="shape=partialRectangle;html=1;whiteSpace=wrap;connectable=0;strokeColor=inherit;overflow=hidden;fillColor=none;top=0;left=0;bottom=0;right=0;pointerEvents=1;" vertex="1" parent="QKTyw7EAt9zANaS0hbVl-130">
          <mxGeometry x="120" width="60" height="40" as="geometry">
            <mxRectangle width="60" height="40" as="alternateBounds" />
          </mxGeometry>
        </mxCell>
        <mxCell id="QKTyw7EAt9zANaS0hbVl-168" value="Cid" style="shape=partialRectangle;html=1;whiteSpace=wrap;connectable=0;strokeColor=inherit;overflow=hidden;fillColor=none;top=0;left=0;bottom=0;right=0;pointerEvents=1;" vertex="1" parent="QKTyw7EAt9zANaS0hbVl-130">
          <mxGeometry x="180" width="60" height="40" as="geometry">
            <mxRectangle width="60" height="40" as="alternateBounds" />
          </mxGeometry>
        </mxCell>
        <mxCell id="QKTyw7EAt9zANaS0hbVl-171" value="Wid" style="shape=partialRectangle;html=1;whiteSpace=wrap;connectable=0;strokeColor=inherit;overflow=hidden;fillColor=none;top=0;left=0;bottom=0;right=0;pointerEvents=1;" vertex="1" parent="QKTyw7EAt9zANaS0hbVl-130">
          <mxGeometry x="240" width="60" height="40" as="geometry">
            <mxRectangle width="60" height="40" as="alternateBounds" />
          </mxGeometry>
        </mxCell>
        <mxCell id="QKTyw7EAt9zANaS0hbVl-134" value="patient" style="text;html=1;align=center;verticalAlign=middle;whiteSpace=wrap;rounded=0;" vertex="1" parent="1">
          <mxGeometry x="860" y="170" width="60" height="30" as="geometry" />
        </mxCell>
        <mxCell id="QKTyw7EAt9zANaS0hbVl-135" value="" style="shape=table;startSize=0;container=1;collapsible=0;childLayout=tableLayout;" vertex="1" parent="1">
          <mxGeometry x="860" y="290" width="120" height="40" as="geometry" />
        </mxCell>
        <mxCell id="QKTyw7EAt9zANaS0hbVl-136" value="" style="shape=tableRow;horizontal=0;startSize=0;swimlaneHead=0;swimlaneBody=0;strokeColor=inherit;top=0;left=0;bottom=0;right=0;collapsible=0;dropTarget=0;fillColor=none;points=[[0,0.5],[1,0.5]];portConstraint=eastwest;" vertex="1" parent="QKTyw7EAt9zANaS0hbVl-135">
          <mxGeometry width="120" height="40" as="geometry" />
        </mxCell>
        <mxCell id="QKTyw7EAt9zANaS0hbVl-137" value="&lt;u&gt;id&lt;/u&gt;" style="shape=partialRectangle;html=1;whiteSpace=wrap;connectable=0;strokeColor=inherit;overflow=hidden;fillColor=none;top=0;left=0;bottom=0;right=0;pointerEvents=1;" vertex="1" parent="QKTyw7EAt9zANaS0hbVl-136">
          <mxGeometry width="60" height="40" as="geometry">
            <mxRectangle width="60" height="40" as="alternateBounds" />
          </mxGeometry>
        </mxCell>
        <mxCell id="QKTyw7EAt9zANaS0hbVl-138" value="name" style="shape=partialRectangle;html=1;whiteSpace=wrap;connectable=0;strokeColor=inherit;overflow=hidden;fillColor=none;top=0;left=0;bottom=0;right=0;pointerEvents=1;" vertex="1" parent="QKTyw7EAt9zANaS0hbVl-136">
          <mxGeometry x="60" width="60" height="40" as="geometry">
            <mxRectangle width="60" height="40" as="alternateBounds" />
          </mxGeometry>
        </mxCell>
        <mxCell id="QKTyw7EAt9zANaS0hbVl-139" value="consultant" style="text;html=1;align=center;verticalAlign=middle;whiteSpace=wrap;rounded=0;" vertex="1" parent="1">
          <mxGeometry x="860" y="260" width="60" height="30" as="geometry" />
        </mxCell>
        <mxCell id="QKTyw7EAt9zANaS0hbVl-140" value="" style="shape=table;startSize=0;container=1;collapsible=0;childLayout=tableLayout;" vertex="1" parent="1">
          <mxGeometry x="860" y="390" width="180" height="40" as="geometry" />
        </mxCell>
        <mxCell id="QKTyw7EAt9zANaS0hbVl-141" value="" style="shape=tableRow;horizontal=0;startSize=0;swimlaneHead=0;swimlaneBody=0;strokeColor=inherit;top=0;left=0;bottom=0;right=0;collapsible=0;dropTarget=0;fillColor=none;points=[[0,0.5],[1,0.5]];portConstraint=eastwest;" vertex="1" parent="QKTyw7EAt9zANaS0hbVl-140">
          <mxGeometry width="180" height="40" as="geometry" />
        </mxCell>
        <mxCell id="QKTyw7EAt9zANaS0hbVl-142" value="&lt;u&gt;id&lt;/u&gt;" style="shape=partialRectangle;html=1;whiteSpace=wrap;connectable=0;strokeColor=inherit;overflow=hidden;fillColor=none;top=0;left=0;bottom=0;right=0;pointerEvents=1;" vertex="1" parent="QKTyw7EAt9zANaS0hbVl-141">
          <mxGeometry width="60" height="40" as="geometry">
            <mxRectangle width="60" height="40" as="alternateBounds" />
          </mxGeometry>
        </mxCell>
        <mxCell id="QKTyw7EAt9zANaS0hbVl-143" value="name" style="shape=partialRectangle;html=1;whiteSpace=wrap;connectable=0;strokeColor=inherit;overflow=hidden;fillColor=none;top=0;left=0;bottom=0;right=0;pointerEvents=1;" vertex="1" parent="QKTyw7EAt9zANaS0hbVl-141">
          <mxGeometry x="60" width="60" height="40" as="geometry">
            <mxRectangle width="60" height="40" as="alternateBounds" />
          </mxGeometry>
        </mxCell>
        <mxCell id="QKTyw7EAt9zANaS0hbVl-165" value="Nnumber" style="shape=partialRectangle;html=1;whiteSpace=wrap;connectable=0;strokeColor=inherit;overflow=hidden;fillColor=none;top=0;left=0;bottom=0;right=0;pointerEvents=1;" vertex="1" parent="QKTyw7EAt9zANaS0hbVl-141">
          <mxGeometry x="120" width="60" height="40" as="geometry">
            <mxRectangle width="60" height="40" as="alternateBounds" />
          </mxGeometry>
        </mxCell>
        <mxCell id="QKTyw7EAt9zANaS0hbVl-144" value="ward" style="text;html=1;align=center;verticalAlign=middle;whiteSpace=wrap;rounded=0;" vertex="1" parent="1">
          <mxGeometry x="860" y="360" width="60" height="30" as="geometry" />
        </mxCell>
        <mxCell id="QKTyw7EAt9zANaS0hbVl-145" value="" style="shape=table;startSize=0;container=1;collapsible=0;childLayout=tableLayout;" vertex="1" parent="1">
          <mxGeometry x="860" y="490" width="240" height="40" as="geometry" />
        </mxCell>
        <mxCell id="QKTyw7EAt9zANaS0hbVl-146" value="" style="shape=tableRow;horizontal=0;startSize=0;swimlaneHead=0;swimlaneBody=0;strokeColor=inherit;top=0;left=0;bottom=0;right=0;collapsible=0;dropTarget=0;fillColor=none;points=[[0,0.5],[1,0.5]];portConstraint=eastwest;" vertex="1" parent="QKTyw7EAt9zANaS0hbVl-145">
          <mxGeometry width="240" height="40" as="geometry" />
        </mxCell>
        <mxCell id="QKTyw7EAt9zANaS0hbVl-147" value="&lt;u&gt;number&lt;/u&gt;" style="shape=partialRectangle;html=1;whiteSpace=wrap;connectable=0;strokeColor=inherit;overflow=hidden;fillColor=none;top=0;left=0;bottom=0;right=0;pointerEvents=1;" vertex="1" parent="QKTyw7EAt9zANaS0hbVl-146">
          <mxGeometry width="60" height="40" as="geometry">
            <mxRectangle width="60" height="40" as="alternateBounds" />
          </mxGeometry>
        </mxCell>
        <mxCell id="QKTyw7EAt9zANaS0hbVl-148" value="name" style="shape=partialRectangle;html=1;whiteSpace=wrap;connectable=0;strokeColor=inherit;overflow=hidden;fillColor=none;top=0;left=0;bottom=0;right=0;pointerEvents=1;" vertex="1" parent="QKTyw7EAt9zANaS0hbVl-146">
          <mxGeometry x="60" width="60" height="40" as="geometry">
            <mxRectangle width="60" height="40" as="alternateBounds" />
          </mxGeometry>
        </mxCell>
        <mxCell id="QKTyw7EAt9zANaS0hbVl-149" value="address" style="shape=partialRectangle;html=1;whiteSpace=wrap;connectable=0;strokeColor=inherit;overflow=hidden;fillColor=none;top=0;left=0;bottom=0;right=0;pointerEvents=1;" vertex="1" parent="QKTyw7EAt9zANaS0hbVl-146">
          <mxGeometry x="120" width="60" height="40" as="geometry">
            <mxRectangle width="60" height="40" as="alternateBounds" />
          </mxGeometry>
        </mxCell>
        <mxCell id="QKTyw7EAt9zANaS0hbVl-174" value="Wid" style="shape=partialRectangle;html=1;whiteSpace=wrap;connectable=0;strokeColor=inherit;overflow=hidden;fillColor=none;top=0;left=0;bottom=0;right=0;pointerEvents=1;" vertex="1" parent="QKTyw7EAt9zANaS0hbVl-146">
          <mxGeometry x="180" width="60" height="40" as="geometry">
            <mxRectangle width="60" height="40" as="alternateBounds" />
          </mxGeometry>
        </mxCell>
        <mxCell id="QKTyw7EAt9zANaS0hbVl-150" value="nurse" style="text;html=1;align=center;verticalAlign=middle;whiteSpace=wrap;rounded=0;" vertex="1" parent="1">
          <mxGeometry x="860" y="460" width="60" height="30" as="geometry" />
        </mxCell>
        <mxCell id="QKTyw7EAt9zANaS0hbVl-151" value="" style="shape=table;startSize=0;container=1;collapsible=0;childLayout=tableLayout;" vertex="1" parent="1">
          <mxGeometry x="860" y="590" width="120" height="40" as="geometry" />
        </mxCell>
        <mxCell id="QKTyw7EAt9zANaS0hbVl-152" value="" style="shape=tableRow;horizontal=0;startSize=0;swimlaneHead=0;swimlaneBody=0;strokeColor=inherit;top=0;left=0;bottom=0;right=0;collapsible=0;dropTarget=0;fillColor=none;points=[[0,0.5],[1,0.5]];portConstraint=eastwest;" vertex="1" parent="QKTyw7EAt9zANaS0hbVl-151">
          <mxGeometry width="120" height="40" as="geometry" />
        </mxCell>
        <mxCell id="QKTyw7EAt9zANaS0hbVl-153" value="&lt;u&gt;code&lt;/u&gt;" style="shape=partialRectangle;html=1;whiteSpace=wrap;connectable=0;strokeColor=inherit;overflow=hidden;fillColor=none;top=0;left=0;bottom=0;right=0;pointerEvents=1;" vertex="1" parent="QKTyw7EAt9zANaS0hbVl-152">
          <mxGeometry width="60" height="40" as="geometry">
            <mxRectangle width="60" height="40" as="alternateBounds" />
          </mxGeometry>
        </mxCell>
        <mxCell id="QKTyw7EAt9zANaS0hbVl-154" value="dosage" style="shape=partialRectangle;html=1;whiteSpace=wrap;connectable=0;strokeColor=inherit;overflow=hidden;fillColor=none;top=0;left=0;bottom=0;right=0;pointerEvents=1;" vertex="1" parent="QKTyw7EAt9zANaS0hbVl-152">
          <mxGeometry x="60" width="60" height="40" as="geometry">
            <mxRectangle width="60" height="40" as="alternateBounds" />
          </mxGeometry>
        </mxCell>
        <mxCell id="QKTyw7EAt9zANaS0hbVl-156" value="drug" style="text;html=1;align=center;verticalAlign=middle;whiteSpace=wrap;rounded=0;" vertex="1" parent="1">
          <mxGeometry x="860" y="560" width="60" height="30" as="geometry" />
        </mxCell>
        <mxCell id="QKTyw7EAt9zANaS0hbVl-157" value="" style="shape=table;startSize=0;container=1;collapsible=0;childLayout=tableLayout;" vertex="1" parent="1">
          <mxGeometry x="860" y="670" width="120" height="40" as="geometry" />
        </mxCell>
        <mxCell id="QKTyw7EAt9zANaS0hbVl-158" value="" style="shape=tableRow;horizontal=0;startSize=0;swimlaneHead=0;swimlaneBody=0;strokeColor=inherit;top=0;left=0;bottom=0;right=0;collapsible=0;dropTarget=0;fillColor=none;points=[[0,0.5],[1,0.5]];portConstraint=eastwest;" vertex="1" parent="QKTyw7EAt9zANaS0hbVl-157">
          <mxGeometry width="120" height="40" as="geometry" />
        </mxCell>
        <mxCell id="QKTyw7EAt9zANaS0hbVl-159" value="dcode" style="shape=partialRectangle;html=1;whiteSpace=wrap;connectable=0;strokeColor=inherit;overflow=hidden;fillColor=none;top=0;left=0;bottom=0;right=0;pointerEvents=1;" vertex="1" parent="QKTyw7EAt9zANaS0hbVl-158">
          <mxGeometry width="60" height="40" as="geometry">
            <mxRectangle width="60" height="40" as="alternateBounds" />
          </mxGeometry>
        </mxCell>
        <mxCell id="QKTyw7EAt9zANaS0hbVl-160" value="brand" style="shape=partialRectangle;html=1;whiteSpace=wrap;connectable=0;strokeColor=inherit;overflow=hidden;fillColor=none;top=0;left=0;bottom=0;right=0;pointerEvents=1;" vertex="1" parent="QKTyw7EAt9zANaS0hbVl-158">
          <mxGeometry x="60" width="60" height="40" as="geometry">
            <mxRectangle width="60" height="40" as="alternateBounds" />
          </mxGeometry>
        </mxCell>
        <mxCell id="QKTyw7EAt9zANaS0hbVl-161" value="drugbrands" style="text;html=1;align=center;verticalAlign=middle;whiteSpace=wrap;rounded=0;" vertex="1" parent="1">
          <mxGeometry x="860" y="640" width="60" height="30" as="geometry" />
        </mxCell>
        <mxCell id="QKTyw7EAt9zANaS0hbVl-162" value="" style="endArrow=none;dashed=1;html=1;dashPattern=1 3;strokeWidth=2;rounded=0;" edge="1" parent="1">
          <mxGeometry width="50" height="50" relative="1" as="geometry">
            <mxPoint x="880" y="700" as="sourcePoint" />
            <mxPoint x="900" y="700" as="targetPoint" />
          </mxGeometry>
        </mxCell>
        <mxCell id="QKTyw7EAt9zANaS0hbVl-163" value="" style="endArrow=none;html=1;rounded=0;" edge="1" parent="1">
          <mxGeometry width="50" height="50" relative="1" as="geometry">
            <mxPoint x="875" y="704.58" as="sourcePoint" />
            <mxPoint x="965" y="704.58" as="targetPoint" />
          </mxGeometry>
        </mxCell>
        <mxCell id="QKTyw7EAt9zANaS0hbVl-164" style="edgeStyle=orthogonalEdgeStyle;rounded=0;orthogonalLoop=1;jettySize=auto;html=1;entryX=0;entryY=0.5;entryDx=0;entryDy=0;" edge="1" parent="1" source="QKTyw7EAt9zANaS0hbVl-158" target="QKTyw7EAt9zANaS0hbVl-152">
          <mxGeometry relative="1" as="geometry" />
        </mxCell>
        <mxCell id="QKTyw7EAt9zANaS0hbVl-166" value="" style="endArrow=none;dashed=1;html=1;dashPattern=1 3;strokeWidth=2;rounded=0;" edge="1" parent="1">
          <mxGeometry width="50" height="50" relative="1" as="geometry">
            <mxPoint x="1000" y="420" as="sourcePoint" />
            <mxPoint x="1020" y="420" as="targetPoint" />
          </mxGeometry>
        </mxCell>
        <mxCell id="QKTyw7EAt9zANaS0hbVl-167" style="edgeStyle=orthogonalEdgeStyle;rounded=0;orthogonalLoop=1;jettySize=auto;html=1;entryX=0;entryY=0.75;entryDx=0;entryDy=0;entryPerimeter=0;" edge="1" parent="1" source="QKTyw7EAt9zANaS0hbVl-141" target="QKTyw7EAt9zANaS0hbVl-146">
          <mxGeometry relative="1" as="geometry">
            <Array as="points">
              <mxPoint x="1090" y="410" />
              <mxPoint x="1090" y="450" />
              <mxPoint x="840" y="450" />
              <mxPoint x="840" y="520" />
            </Array>
          </mxGeometry>
        </mxCell>
        <mxCell id="QKTyw7EAt9zANaS0hbVl-169" value="" style="endArrow=none;dashed=1;html=1;dashPattern=1 3;strokeWidth=2;rounded=0;" edge="1" parent="1">
          <mxGeometry width="50" height="50" relative="1" as="geometry">
            <mxPoint x="1060" y="230" as="sourcePoint" />
            <mxPoint x="1080" y="230" as="targetPoint" />
          </mxGeometry>
        </mxCell>
        <mxCell id="QKTyw7EAt9zANaS0hbVl-170" style="edgeStyle=orthogonalEdgeStyle;rounded=0;orthogonalLoop=1;jettySize=auto;html=1;entryX=0;entryY=0.5;entryDx=0;entryDy=0;" edge="1" parent="1" source="QKTyw7EAt9zANaS0hbVl-130" target="QKTyw7EAt9zANaS0hbVl-136">
          <mxGeometry relative="1" as="geometry">
            <Array as="points">
              <mxPoint x="1070" y="260" />
              <mxPoint x="840" y="260" />
              <mxPoint x="840" y="310" />
            </Array>
          </mxGeometry>
        </mxCell>
        <mxCell id="QKTyw7EAt9zANaS0hbVl-172" value="" style="endArrow=none;dashed=1;html=1;dashPattern=1 3;strokeWidth=2;rounded=0;" edge="1" parent="1">
          <mxGeometry width="50" height="50" relative="1" as="geometry">
            <mxPoint x="1120" y="230" as="sourcePoint" />
            <mxPoint x="1140" y="230" as="targetPoint" />
          </mxGeometry>
        </mxCell>
        <mxCell id="QKTyw7EAt9zANaS0hbVl-173" style="edgeStyle=orthogonalEdgeStyle;rounded=0;orthogonalLoop=1;jettySize=auto;html=1;entryX=0;entryY=0.5;entryDx=0;entryDy=0;" edge="1" parent="1" source="QKTyw7EAt9zANaS0hbVl-130" target="QKTyw7EAt9zANaS0hbVl-141">
          <mxGeometry relative="1" as="geometry">
            <Array as="points">
              <mxPoint x="1120" y="350" />
              <mxPoint x="830" y="350" />
              <mxPoint x="830" y="410" />
            </Array>
          </mxGeometry>
        </mxCell>
        <mxCell id="QKTyw7EAt9zANaS0hbVl-175" value="" style="endArrow=none;dashed=1;html=1;dashPattern=1 3;strokeWidth=2;rounded=0;" edge="1" parent="1">
          <mxGeometry width="50" height="50" relative="1" as="geometry">
            <mxPoint x="1060" y="520" as="sourcePoint" />
            <mxPoint x="1080" y="520" as="targetPoint" />
          </mxGeometry>
        </mxCell>
        <mxCell id="QKTyw7EAt9zANaS0hbVl-176" style="edgeStyle=orthogonalEdgeStyle;rounded=0;orthogonalLoop=1;jettySize=auto;html=1;entryX=-0.012;entryY=0.642;entryDx=0;entryDy=0;entryPerimeter=0;" edge="1" parent="1" source="QKTyw7EAt9zANaS0hbVl-145" target="QKTyw7EAt9zANaS0hbVl-141">
          <mxGeometry relative="1" as="geometry">
            <Array as="points">
              <mxPoint x="1070" y="550" />
              <mxPoint x="810" y="550" />
              <mxPoint x="810" y="416" />
            </Array>
          </mxGeometry>
        </mxCell>
        <mxCell id="QKTyw7EAt9zANaS0hbVl-177" value="" style="shape=table;startSize=0;container=1;collapsible=0;childLayout=tableLayout;" vertex="1" parent="1">
          <mxGeometry x="860" y="750" width="360" height="40" as="geometry" />
        </mxCell>
        <mxCell id="QKTyw7EAt9zANaS0hbVl-178" value="" style="shape=tableRow;horizontal=0;startSize=0;swimlaneHead=0;swimlaneBody=0;strokeColor=inherit;top=0;left=0;bottom=0;right=0;collapsible=0;dropTarget=0;fillColor=none;points=[[0,0.5],[1,0.5]];portConstraint=eastwest;" vertex="1" parent="QKTyw7EAt9zANaS0hbVl-177">
          <mxGeometry width="360" height="40" as="geometry" />
        </mxCell>
        <mxCell id="QKTyw7EAt9zANaS0hbVl-179" value="Pid" style="shape=partialRectangle;html=1;whiteSpace=wrap;connectable=0;strokeColor=inherit;overflow=hidden;fillColor=none;top=0;left=0;bottom=0;right=0;pointerEvents=1;" vertex="1" parent="QKTyw7EAt9zANaS0hbVl-178">
          <mxGeometry width="60" height="40" as="geometry">
            <mxRectangle width="60" height="40" as="alternateBounds" />
          </mxGeometry>
        </mxCell>
        <mxCell id="QKTyw7EAt9zANaS0hbVl-180" value="Did" style="shape=partialRectangle;html=1;whiteSpace=wrap;connectable=0;strokeColor=inherit;overflow=hidden;fillColor=none;top=0;left=0;bottom=0;right=0;pointerEvents=1;" vertex="1" parent="QKTyw7EAt9zANaS0hbVl-178">
          <mxGeometry x="60" width="60" height="40" as="geometry">
            <mxRectangle width="60" height="40" as="alternateBounds" />
          </mxGeometry>
        </mxCell>
        <mxCell id="QKTyw7EAt9zANaS0hbVl-181" value="Nid" style="shape=partialRectangle;html=1;whiteSpace=wrap;connectable=0;strokeColor=inherit;overflow=hidden;fillColor=none;top=0;left=0;bottom=0;right=0;pointerEvents=1;" vertex="1" parent="QKTyw7EAt9zANaS0hbVl-178">
          <mxGeometry x="120" width="60" height="40" as="geometry">
            <mxRectangle width="60" height="40" as="alternateBounds" />
          </mxGeometry>
        </mxCell>
        <mxCell id="QKTyw7EAt9zANaS0hbVl-182" value="dosage" style="shape=partialRectangle;html=1;whiteSpace=wrap;connectable=0;strokeColor=inherit;overflow=hidden;fillColor=none;top=0;left=0;bottom=0;right=0;pointerEvents=1;" vertex="1" parent="QKTyw7EAt9zANaS0hbVl-178">
          <mxGeometry x="180" width="60" height="40" as="geometry">
            <mxRectangle width="60" height="40" as="alternateBounds" />
          </mxGeometry>
        </mxCell>
        <mxCell id="QKTyw7EAt9zANaS0hbVl-183" value="date" style="shape=partialRectangle;html=1;whiteSpace=wrap;connectable=0;strokeColor=inherit;overflow=hidden;fillColor=none;top=0;left=0;bottom=0;right=0;pointerEvents=1;" vertex="1" parent="QKTyw7EAt9zANaS0hbVl-178">
          <mxGeometry x="240" width="60" height="40" as="geometry">
            <mxRectangle width="60" height="40" as="alternateBounds" />
          </mxGeometry>
        </mxCell>
        <mxCell id="QKTyw7EAt9zANaS0hbVl-184" value="time" style="shape=partialRectangle;html=1;whiteSpace=wrap;connectable=0;strokeColor=inherit;overflow=hidden;fillColor=none;top=0;left=0;bottom=0;right=0;pointerEvents=1;" vertex="1" parent="QKTyw7EAt9zANaS0hbVl-178">
          <mxGeometry x="300" width="60" height="40" as="geometry">
            <mxRectangle width="60" height="40" as="alternateBounds" />
          </mxGeometry>
        </mxCell>
        <mxCell id="QKTyw7EAt9zANaS0hbVl-185" value="drugdetails" style="text;html=1;align=center;verticalAlign=middle;whiteSpace=wrap;rounded=0;" vertex="1" parent="1">
          <mxGeometry x="860" y="720" width="60" height="30" as="geometry" />
        </mxCell>
        <mxCell id="QKTyw7EAt9zANaS0hbVl-186" value="" style="endArrow=none;dashed=1;html=1;dashPattern=1 3;strokeWidth=2;rounded=0;" edge="1" parent="1">
          <mxGeometry width="50" height="50" relative="1" as="geometry">
            <mxPoint x="880" y="780" as="sourcePoint" />
            <mxPoint x="900" y="780" as="targetPoint" />
          </mxGeometry>
        </mxCell>
        <mxCell id="QKTyw7EAt9zANaS0hbVl-187" value="" style="endArrow=none;dashed=1;html=1;dashPattern=1 3;strokeWidth=2;rounded=0;" edge="1" parent="1">
          <mxGeometry width="50" height="50" relative="1" as="geometry">
            <mxPoint x="1000" y="780" as="sourcePoint" />
            <mxPoint x="1020" y="780" as="targetPoint" />
          </mxGeometry>
        </mxCell>
        <mxCell id="QKTyw7EAt9zANaS0hbVl-188" value="" style="endArrow=none;dashed=1;html=1;dashPattern=1 3;strokeWidth=2;rounded=0;" edge="1" parent="1">
          <mxGeometry width="50" height="50" relative="1" as="geometry">
            <mxPoint x="940" y="780" as="sourcePoint" />
            <mxPoint x="960" y="780" as="targetPoint" />
          </mxGeometry>
        </mxCell>
        <mxCell id="QKTyw7EAt9zANaS0hbVl-189" value="" style="endArrow=none;html=1;rounded=0;" edge="1" parent="1">
          <mxGeometry width="50" height="50" relative="1" as="geometry">
            <mxPoint x="875" y="782" as="sourcePoint" />
            <mxPoint x="965" y="782" as="targetPoint" />
          </mxGeometry>
        </mxCell>
        <mxCell id="QKTyw7EAt9zANaS0hbVl-190" style="edgeStyle=orthogonalEdgeStyle;rounded=0;orthogonalLoop=1;jettySize=auto;html=1;entryX=0;entryY=0.5;entryDx=0;entryDy=0;" edge="1" parent="1" source="QKTyw7EAt9zANaS0hbVl-178" target="QKTyw7EAt9zANaS0hbVl-130">
          <mxGeometry relative="1" as="geometry">
            <Array as="points">
              <mxPoint x="800" y="770" />
              <mxPoint x="800" y="220" />
            </Array>
          </mxGeometry>
        </mxCell>
        <mxCell id="QKTyw7EAt9zANaS0hbVl-191" style="edgeStyle=orthogonalEdgeStyle;rounded=0;orthogonalLoop=1;jettySize=auto;html=1;entryX=0;entryY=0.75;entryDx=0;entryDy=0;entryPerimeter=0;" edge="1" parent="1" source="QKTyw7EAt9zANaS0hbVl-177" target="QKTyw7EAt9zANaS0hbVl-152">
          <mxGeometry relative="1" as="geometry">
            <Array as="points">
              <mxPoint x="950" y="820" />
              <mxPoint x="840" y="820" />
              <mxPoint x="840" y="620" />
            </Array>
          </mxGeometry>
        </mxCell>
        <mxCell id="QKTyw7EAt9zANaS0hbVl-192" style="edgeStyle=orthogonalEdgeStyle;rounded=0;orthogonalLoop=1;jettySize=auto;html=1;entryX=-0.002;entryY=0.329;entryDx=0;entryDy=0;entryPerimeter=0;" edge="1" parent="1" source="QKTyw7EAt9zANaS0hbVl-177" target="QKTyw7EAt9zANaS0hbVl-146">
          <mxGeometry relative="1" as="geometry">
            <Array as="points">
              <mxPoint x="1010" y="850" />
              <mxPoint x="820" y="850" />
              <mxPoint x="820" y="503" />
            </Array>
          </mxGeometry>
        </mxCell>
        <mxCell id="QKTyw7EAt9zANaS0hbVl-193" value="musician" style="text;html=1;align=center;verticalAlign=middle;whiteSpace=wrap;rounded=0;" vertex="1" parent="1">
          <mxGeometry x="1720" y="120" width="60" height="30" as="geometry" />
        </mxCell>
        <mxCell id="QKTyw7EAt9zANaS0hbVl-194" value="" style="shape=table;startSize=0;container=1;collapsible=0;childLayout=tableLayout;" vertex="1" parent="1">
          <mxGeometry x="1720" y="200" width="300" height="40" as="geometry" />
        </mxCell>
        <mxCell id="QKTyw7EAt9zANaS0hbVl-195" value="" style="shape=tableRow;horizontal=0;startSize=0;swimlaneHead=0;swimlaneBody=0;strokeColor=inherit;top=0;left=0;bottom=0;right=0;collapsible=0;dropTarget=0;fillColor=none;points=[[0,0.5],[1,0.5]];portConstraint=eastwest;" vertex="1" parent="QKTyw7EAt9zANaS0hbVl-194">
          <mxGeometry width="300" height="40" as="geometry" />
        </mxCell>
        <mxCell id="QKTyw7EAt9zANaS0hbVl-196" value="&lt;u&gt;id&lt;/u&gt;" style="shape=partialRectangle;html=1;whiteSpace=wrap;connectable=0;strokeColor=inherit;overflow=hidden;fillColor=none;top=0;left=0;bottom=0;right=0;pointerEvents=1;" vertex="1" parent="QKTyw7EAt9zANaS0hbVl-195">
          <mxGeometry width="60" height="40" as="geometry">
            <mxRectangle width="60" height="40" as="alternateBounds" />
          </mxGeometry>
        </mxCell>
        <mxCell id="QKTyw7EAt9zANaS0hbVl-197" value="name" style="shape=partialRectangle;html=1;whiteSpace=wrap;connectable=0;strokeColor=inherit;overflow=hidden;fillColor=none;top=0;left=0;bottom=0;right=0;pointerEvents=1;" vertex="1" parent="QKTyw7EAt9zANaS0hbVl-195">
          <mxGeometry x="60" width="60" height="40" as="geometry">
            <mxRectangle width="60" height="40" as="alternateBounds" />
          </mxGeometry>
        </mxCell>
        <mxCell id="QKTyw7EAt9zANaS0hbVl-198" value="ph_number" style="shape=partialRectangle;html=1;whiteSpace=wrap;connectable=0;strokeColor=inherit;overflow=hidden;fillColor=none;top=0;left=0;bottom=0;right=0;pointerEvents=1;" vertex="1" parent="QKTyw7EAt9zANaS0hbVl-195">
          <mxGeometry x="120" width="70" height="40" as="geometry">
            <mxRectangle width="70" height="40" as="alternateBounds" />
          </mxGeometry>
        </mxCell>
        <mxCell id="QKTyw7EAt9zANaS0hbVl-199" value="city" style="shape=partialRectangle;html=1;whiteSpace=wrap;connectable=0;strokeColor=inherit;overflow=hidden;fillColor=none;top=0;left=0;bottom=0;right=0;pointerEvents=1;" vertex="1" parent="QKTyw7EAt9zANaS0hbVl-195">
          <mxGeometry x="190" width="50" height="40" as="geometry">
            <mxRectangle width="50" height="40" as="alternateBounds" />
          </mxGeometry>
        </mxCell>
        <mxCell id="QKTyw7EAt9zANaS0hbVl-200" value="street" style="shape=partialRectangle;html=1;whiteSpace=wrap;connectable=0;strokeColor=inherit;overflow=hidden;fillColor=none;top=0;left=0;bottom=0;right=0;pointerEvents=1;" vertex="1" parent="QKTyw7EAt9zANaS0hbVl-195">
          <mxGeometry x="240" width="60" height="40" as="geometry">
            <mxRectangle width="60" height="40" as="alternateBounds" />
          </mxGeometry>
        </mxCell>
        <mxCell id="QKTyw7EAt9zANaS0hbVl-201" value="musician" style="text;html=1;align=center;verticalAlign=middle;whiteSpace=wrap;rounded=0;" vertex="1" parent="1">
          <mxGeometry x="1720" y="170" width="60" height="30" as="geometry" />
        </mxCell>
        <mxCell id="QKTyw7EAt9zANaS0hbVl-202" value="" style="shape=table;startSize=0;container=1;collapsible=0;childLayout=tableLayout;" vertex="1" parent="1">
          <mxGeometry x="1720" y="360" width="240" height="40" as="geometry" />
        </mxCell>
        <mxCell id="QKTyw7EAt9zANaS0hbVl-203" value="" style="shape=tableRow;horizontal=0;startSize=0;swimlaneHead=0;swimlaneBody=0;strokeColor=inherit;top=0;left=0;bottom=0;right=0;collapsible=0;dropTarget=0;fillColor=none;points=[[0,0.5],[1,0.5]];portConstraint=eastwest;" vertex="1" parent="QKTyw7EAt9zANaS0hbVl-202">
          <mxGeometry width="240" height="40" as="geometry" />
        </mxCell>
        <mxCell id="QKTyw7EAt9zANaS0hbVl-204" value="&lt;u&gt;id&lt;/u&gt;" style="shape=partialRectangle;html=1;whiteSpace=wrap;connectable=0;strokeColor=inherit;overflow=hidden;fillColor=none;top=0;left=0;bottom=0;right=0;pointerEvents=1;" vertex="1" parent="QKTyw7EAt9zANaS0hbVl-203">
          <mxGeometry width="60" height="40" as="geometry">
            <mxRectangle width="60" height="40" as="alternateBounds" />
          </mxGeometry>
        </mxCell>
        <mxCell id="QKTyw7EAt9zANaS0hbVl-205" value="title" style="shape=partialRectangle;html=1;whiteSpace=wrap;connectable=0;strokeColor=inherit;overflow=hidden;fillColor=none;top=0;left=0;bottom=0;right=0;pointerEvents=1;" vertex="1" parent="QKTyw7EAt9zANaS0hbVl-203">
          <mxGeometry x="60" width="60" height="40" as="geometry">
            <mxRectangle width="60" height="40" as="alternateBounds" />
          </mxGeometry>
        </mxCell>
        <mxCell id="QKTyw7EAt9zANaS0hbVl-206" value="date" style="shape=partialRectangle;html=1;whiteSpace=wrap;connectable=0;strokeColor=inherit;overflow=hidden;fillColor=none;top=0;left=0;bottom=0;right=0;pointerEvents=1;" vertex="1" parent="QKTyw7EAt9zANaS0hbVl-203">
          <mxGeometry x="120" width="60" height="40" as="geometry">
            <mxRectangle width="60" height="40" as="alternateBounds" />
          </mxGeometry>
        </mxCell>
        <mxCell id="QKTyw7EAt9zANaS0hbVl-218" value="Mid" style="shape=partialRectangle;html=1;whiteSpace=wrap;connectable=0;strokeColor=inherit;overflow=hidden;fillColor=none;top=0;left=0;bottom=0;right=0;pointerEvents=1;" vertex="1" parent="QKTyw7EAt9zANaS0hbVl-203">
          <mxGeometry x="180" width="60" height="40" as="geometry">
            <mxRectangle width="60" height="40" as="alternateBounds" />
          </mxGeometry>
        </mxCell>
        <mxCell id="QKTyw7EAt9zANaS0hbVl-207" value="album" style="text;html=1;align=center;verticalAlign=middle;whiteSpace=wrap;rounded=0;" vertex="1" parent="1">
          <mxGeometry x="1720" y="330" width="60" height="30" as="geometry" />
        </mxCell>
        <mxCell id="QKTyw7EAt9zANaS0hbVl-208" value="" style="shape=table;startSize=0;container=1;collapsible=0;childLayout=tableLayout;" vertex="1" parent="1">
          <mxGeometry x="1720" y="445" width="120" height="40" as="geometry" />
        </mxCell>
        <mxCell id="QKTyw7EAt9zANaS0hbVl-209" value="" style="shape=tableRow;horizontal=0;startSize=0;swimlaneHead=0;swimlaneBody=0;strokeColor=inherit;top=0;left=0;bottom=0;right=0;collapsible=0;dropTarget=0;fillColor=none;points=[[0,0.5],[1,0.5]];portConstraint=eastwest;" vertex="1" parent="QKTyw7EAt9zANaS0hbVl-208">
          <mxGeometry width="120" height="40" as="geometry" />
        </mxCell>
        <mxCell id="QKTyw7EAt9zANaS0hbVl-210" value="&lt;u&gt;tittle&lt;/u&gt;" style="shape=partialRectangle;html=1;whiteSpace=wrap;connectable=0;strokeColor=inherit;overflow=hidden;fillColor=none;top=0;left=0;bottom=0;right=0;pointerEvents=1;" vertex="1" parent="QKTyw7EAt9zANaS0hbVl-209">
          <mxGeometry width="60" height="40" as="geometry">
            <mxRectangle width="60" height="40" as="alternateBounds" />
          </mxGeometry>
        </mxCell>
        <mxCell id="QKTyw7EAt9zANaS0hbVl-211" value="author" style="shape=partialRectangle;html=1;whiteSpace=wrap;connectable=0;strokeColor=inherit;overflow=hidden;fillColor=none;top=0;left=0;bottom=0;right=0;pointerEvents=1;" vertex="1" parent="QKTyw7EAt9zANaS0hbVl-209">
          <mxGeometry x="60" width="60" height="40" as="geometry">
            <mxRectangle width="60" height="40" as="alternateBounds" />
          </mxGeometry>
        </mxCell>
        <mxCell id="QKTyw7EAt9zANaS0hbVl-212" value="song" style="text;html=1;align=center;verticalAlign=middle;whiteSpace=wrap;rounded=0;" vertex="1" parent="1">
          <mxGeometry x="1720" y="415" width="60" height="30" as="geometry" />
        </mxCell>
        <mxCell id="QKTyw7EAt9zANaS0hbVl-213" value="" style="shape=table;startSize=0;container=1;collapsible=0;childLayout=tableLayout;" vertex="1" parent="1">
          <mxGeometry x="1720" y="280" width="120" height="40" as="geometry" />
        </mxCell>
        <mxCell id="QKTyw7EAt9zANaS0hbVl-214" value="" style="shape=tableRow;horizontal=0;startSize=0;swimlaneHead=0;swimlaneBody=0;strokeColor=inherit;top=0;left=0;bottom=0;right=0;collapsible=0;dropTarget=0;fillColor=none;points=[[0,0.5],[1,0.5]];portConstraint=eastwest;" vertex="1" parent="QKTyw7EAt9zANaS0hbVl-213">
          <mxGeometry width="120" height="40" as="geometry" />
        </mxCell>
        <mxCell id="QKTyw7EAt9zANaS0hbVl-215" value="&lt;u&gt;name&lt;/u&gt;" style="shape=partialRectangle;html=1;whiteSpace=wrap;connectable=0;strokeColor=inherit;overflow=hidden;fillColor=none;top=0;left=0;bottom=0;right=0;pointerEvents=1;" vertex="1" parent="QKTyw7EAt9zANaS0hbVl-214">
          <mxGeometry width="60" height="40" as="geometry">
            <mxRectangle width="60" height="40" as="alternateBounds" />
          </mxGeometry>
        </mxCell>
        <mxCell id="QKTyw7EAt9zANaS0hbVl-216" value="key" style="shape=partialRectangle;html=1;whiteSpace=wrap;connectable=0;strokeColor=inherit;overflow=hidden;fillColor=none;top=0;left=0;bottom=0;right=0;pointerEvents=1;" vertex="1" parent="QKTyw7EAt9zANaS0hbVl-214">
          <mxGeometry x="60" width="60" height="40" as="geometry">
            <mxRectangle width="60" height="40" as="alternateBounds" />
          </mxGeometry>
        </mxCell>
        <mxCell id="QKTyw7EAt9zANaS0hbVl-217" value="insturment" style="text;html=1;align=center;verticalAlign=middle;whiteSpace=wrap;rounded=0;" vertex="1" parent="1">
          <mxGeometry x="1720" y="250" width="60" height="30" as="geometry" />
        </mxCell>
        <mxCell id="QKTyw7EAt9zANaS0hbVl-219" value="" style="endArrow=none;dashed=1;html=1;dashPattern=1 3;strokeWidth=2;rounded=0;" edge="1" parent="1">
          <mxGeometry width="50" height="50" relative="1" as="geometry">
            <mxPoint x="1900" y="389.44" as="sourcePoint" />
            <mxPoint x="1960" y="389.44" as="targetPoint" />
          </mxGeometry>
        </mxCell>
        <mxCell id="QKTyw7EAt9zANaS0hbVl-220" style="edgeStyle=orthogonalEdgeStyle;rounded=0;orthogonalLoop=1;jettySize=auto;html=1;entryX=0;entryY=0.5;entryDx=0;entryDy=0;" edge="1" parent="1" source="QKTyw7EAt9zANaS0hbVl-203" target="QKTyw7EAt9zANaS0hbVl-195">
          <mxGeometry relative="1" as="geometry">
            <Array as="points">
              <mxPoint x="1980" y="380" />
              <mxPoint x="1980" y="330" />
              <mxPoint x="1700" y="330" />
              <mxPoint x="1700" y="220" />
            </Array>
          </mxGeometry>
        </mxCell>
        <mxCell id="QKTyw7EAt9zANaS0hbVl-222" value="" style="shape=table;startSize=0;container=1;collapsible=0;childLayout=tableLayout;" vertex="1" parent="1">
          <mxGeometry x="1720" y="530" width="120" height="40" as="geometry" />
        </mxCell>
        <mxCell id="QKTyw7EAt9zANaS0hbVl-223" value="" style="shape=tableRow;horizontal=0;startSize=0;swimlaneHead=0;swimlaneBody=0;strokeColor=inherit;top=0;left=0;bottom=0;right=0;collapsible=0;dropTarget=0;fillColor=none;points=[[0,0.5],[1,0.5]];portConstraint=eastwest;" vertex="1" parent="QKTyw7EAt9zANaS0hbVl-222">
          <mxGeometry width="120" height="40" as="geometry" />
        </mxCell>
        <mxCell id="QKTyw7EAt9zANaS0hbVl-224" value="Mid" style="shape=partialRectangle;html=1;whiteSpace=wrap;connectable=0;strokeColor=inherit;overflow=hidden;fillColor=none;top=0;left=0;bottom=0;right=0;pointerEvents=1;" vertex="1" parent="QKTyw7EAt9zANaS0hbVl-223">
          <mxGeometry width="60" height="40" as="geometry">
            <mxRectangle width="60" height="40" as="alternateBounds" />
          </mxGeometry>
        </mxCell>
        <mxCell id="QKTyw7EAt9zANaS0hbVl-225" value="Sid" style="shape=partialRectangle;html=1;whiteSpace=wrap;connectable=0;strokeColor=inherit;overflow=hidden;fillColor=none;top=0;left=0;bottom=0;right=0;pointerEvents=1;" vertex="1" parent="QKTyw7EAt9zANaS0hbVl-223">
          <mxGeometry x="60" width="60" height="40" as="geometry">
            <mxRectangle width="60" height="40" as="alternateBounds" />
          </mxGeometry>
        </mxCell>
        <mxCell id="QKTyw7EAt9zANaS0hbVl-226" value="performed songs" style="text;html=1;align=center;verticalAlign=middle;whiteSpace=wrap;rounded=0;" vertex="1" parent="1">
          <mxGeometry x="1720" y="500" width="60" height="30" as="geometry" />
        </mxCell>
        <mxCell id="QKTyw7EAt9zANaS0hbVl-227" value="" style="endArrow=none;dashed=1;html=1;dashPattern=1 3;strokeWidth=2;rounded=0;" edge="1" parent="1">
          <mxGeometry width="50" height="50" relative="1" as="geometry">
            <mxPoint x="1780" y="560" as="sourcePoint" />
            <mxPoint x="1840" y="560" as="targetPoint" />
          </mxGeometry>
        </mxCell>
        <mxCell id="QKTyw7EAt9zANaS0hbVl-228" value="" style="endArrow=none;dashed=1;html=1;dashPattern=1 3;strokeWidth=2;rounded=0;" edge="1" parent="1">
          <mxGeometry width="50" height="50" relative="1" as="geometry">
            <mxPoint x="1720" y="560" as="sourcePoint" />
            <mxPoint x="1780" y="560" as="targetPoint" />
          </mxGeometry>
        </mxCell>
        <mxCell id="QKTyw7EAt9zANaS0hbVl-229" value="" style="endArrow=none;html=1;rounded=0;" edge="1" parent="1">
          <mxGeometry width="50" height="50" relative="1" as="geometry">
            <mxPoint x="1745" y="564.44" as="sourcePoint" />
            <mxPoint x="1815" y="564.44" as="targetPoint" />
          </mxGeometry>
        </mxCell>
        <mxCell id="QKTyw7EAt9zANaS0hbVl-230" style="edgeStyle=orthogonalEdgeStyle;rounded=0;orthogonalLoop=1;jettySize=auto;html=1;entryX=0;entryY=0.5;entryDx=0;entryDy=0;" edge="1" parent="1" source="QKTyw7EAt9zANaS0hbVl-223" target="QKTyw7EAt9zANaS0hbVl-195">
          <mxGeometry relative="1" as="geometry">
            <Array as="points">
              <mxPoint x="1690" y="550" />
              <mxPoint x="1690" y="220" />
            </Array>
          </mxGeometry>
        </mxCell>
        <mxCell id="QKTyw7EAt9zANaS0hbVl-231" style="edgeStyle=orthogonalEdgeStyle;rounded=0;orthogonalLoop=1;jettySize=auto;html=1;entryX=0;entryY=0.625;entryDx=0;entryDy=0;entryPerimeter=0;" edge="1" parent="1" source="QKTyw7EAt9zANaS0hbVl-223" target="QKTyw7EAt9zANaS0hbVl-209">
          <mxGeometry relative="1" as="geometry">
            <Array as="points">
              <mxPoint x="1820" y="500" />
              <mxPoint x="1710" y="500" />
              <mxPoint x="1710" y="470" />
            </Array>
          </mxGeometry>
        </mxCell>
        <mxCell id="QKTyw7EAt9zANaS0hbVl-232" value="" style="shape=table;startSize=0;container=1;collapsible=0;childLayout=tableLayout;" vertex="1" parent="1">
          <mxGeometry x="1720" y="610" width="120" height="40" as="geometry" />
        </mxCell>
        <mxCell id="QKTyw7EAt9zANaS0hbVl-233" value="" style="shape=tableRow;horizontal=0;startSize=0;swimlaneHead=0;swimlaneBody=0;strokeColor=inherit;top=0;left=0;bottom=0;right=0;collapsible=0;dropTarget=0;fillColor=none;points=[[0,0.5],[1,0.5]];portConstraint=eastwest;" vertex="1" parent="QKTyw7EAt9zANaS0hbVl-232">
          <mxGeometry width="120" height="40" as="geometry" />
        </mxCell>
        <mxCell id="QKTyw7EAt9zANaS0hbVl-234" value="Mid" style="shape=partialRectangle;html=1;whiteSpace=wrap;connectable=0;strokeColor=inherit;overflow=hidden;fillColor=none;top=0;left=0;bottom=0;right=0;pointerEvents=1;" vertex="1" parent="QKTyw7EAt9zANaS0hbVl-233">
          <mxGeometry width="60" height="40" as="geometry">
            <mxRectangle width="60" height="40" as="alternateBounds" />
          </mxGeometry>
        </mxCell>
        <mxCell id="QKTyw7EAt9zANaS0hbVl-235" value="Iid" style="shape=partialRectangle;html=1;whiteSpace=wrap;connectable=0;strokeColor=inherit;overflow=hidden;fillColor=none;top=0;left=0;bottom=0;right=0;pointerEvents=1;" vertex="1" parent="QKTyw7EAt9zANaS0hbVl-233">
          <mxGeometry x="60" width="60" height="40" as="geometry">
            <mxRectangle width="60" height="40" as="alternateBounds" />
          </mxGeometry>
        </mxCell>
        <mxCell id="QKTyw7EAt9zANaS0hbVl-236" value="insturdetails" style="text;html=1;align=center;verticalAlign=middle;whiteSpace=wrap;rounded=0;" vertex="1" parent="1">
          <mxGeometry x="1720" y="580" width="60" height="30" as="geometry" />
        </mxCell>
        <mxCell id="QKTyw7EAt9zANaS0hbVl-237" value="" style="endArrow=none;dashed=1;html=1;dashPattern=1 3;strokeWidth=2;rounded=0;" edge="1" parent="1">
          <mxGeometry width="50" height="50" relative="1" as="geometry">
            <mxPoint x="1780" y="640" as="sourcePoint" />
            <mxPoint x="1840" y="640" as="targetPoint" />
          </mxGeometry>
        </mxCell>
        <mxCell id="QKTyw7EAt9zANaS0hbVl-238" value="" style="endArrow=none;dashed=1;html=1;dashPattern=1 3;strokeWidth=2;rounded=0;" edge="1" parent="1">
          <mxGeometry width="50" height="50" relative="1" as="geometry">
            <mxPoint x="1720" y="640" as="sourcePoint" />
            <mxPoint x="1780" y="640" as="targetPoint" />
          </mxGeometry>
        </mxCell>
        <mxCell id="QKTyw7EAt9zANaS0hbVl-239" value="" style="endArrow=none;html=1;rounded=0;" edge="1" parent="1">
          <mxGeometry width="50" height="50" relative="1" as="geometry">
            <mxPoint x="1745" y="644.44" as="sourcePoint" />
            <mxPoint x="1815" y="644.44" as="targetPoint" />
          </mxGeometry>
        </mxCell>
        <mxCell id="QKTyw7EAt9zANaS0hbVl-240" style="edgeStyle=orthogonalEdgeStyle;rounded=0;orthogonalLoop=1;jettySize=auto;html=1;entryX=0;entryY=0.5;entryDx=0;entryDy=0;" edge="1" parent="1" source="QKTyw7EAt9zANaS0hbVl-233" target="QKTyw7EAt9zANaS0hbVl-195">
          <mxGeometry relative="1" as="geometry">
            <Array as="points">
              <mxPoint x="1680" y="630" />
              <mxPoint x="1680" y="220" />
            </Array>
          </mxGeometry>
        </mxCell>
        <mxCell id="QKTyw7EAt9zANaS0hbVl-242" style="edgeStyle=orthogonalEdgeStyle;rounded=0;orthogonalLoop=1;jettySize=auto;html=1;entryX=0;entryY=0.5;entryDx=0;entryDy=0;" edge="1" parent="1" source="QKTyw7EAt9zANaS0hbVl-233" target="QKTyw7EAt9zANaS0hbVl-214">
          <mxGeometry relative="1" as="geometry">
            <Array as="points">
              <mxPoint x="1810" y="580" />
              <mxPoint x="1660" y="580" />
              <mxPoint x="1660" y="300" />
            </Array>
          </mxGeometry>
        </mxCell>
        <mxCell id="QKTyw7EAt9zANaS0hbVl-243" value="sales" style="text;html=1;align=center;verticalAlign=middle;whiteSpace=wrap;rounded=0;" vertex="1" parent="1">
          <mxGeometry x="2560" y="120" width="60" height="30" as="geometry" />
        </mxCell>
        <mxCell id="QKTyw7EAt9zANaS0hbVl-244" value="" style="shape=table;startSize=0;container=1;collapsible=0;childLayout=tableLayout;" vertex="1" parent="1">
          <mxGeometry x="2560" y="200" width="180" height="40" as="geometry" />
        </mxCell>
        <mxCell id="QKTyw7EAt9zANaS0hbVl-245" value="" style="shape=tableRow;horizontal=0;startSize=0;swimlaneHead=0;swimlaneBody=0;strokeColor=inherit;top=0;left=0;bottom=0;right=0;collapsible=0;dropTarget=0;fillColor=none;points=[[0,0.5],[1,0.5]];portConstraint=eastwest;" vertex="1" parent="QKTyw7EAt9zANaS0hbVl-244">
          <mxGeometry width="180" height="40" as="geometry" />
        </mxCell>
        <mxCell id="QKTyw7EAt9zANaS0hbVl-246" value="&lt;u&gt;number&lt;/u&gt;" style="shape=partialRectangle;html=1;whiteSpace=wrap;connectable=0;strokeColor=inherit;overflow=hidden;fillColor=none;top=0;left=0;bottom=0;right=0;pointerEvents=1;" vertex="1" parent="QKTyw7EAt9zANaS0hbVl-245">
          <mxGeometry width="60" height="40" as="geometry">
            <mxRectangle width="60" height="40" as="alternateBounds" />
          </mxGeometry>
        </mxCell>
        <mxCell id="QKTyw7EAt9zANaS0hbVl-247" value="location" style="shape=partialRectangle;html=1;whiteSpace=wrap;connectable=0;strokeColor=inherit;overflow=hidden;fillColor=none;top=0;left=0;bottom=0;right=0;pointerEvents=1;" vertex="1" parent="QKTyw7EAt9zANaS0hbVl-245">
          <mxGeometry x="60" width="60" height="40" as="geometry">
            <mxRectangle width="60" height="40" as="alternateBounds" />
          </mxGeometry>
        </mxCell>
        <mxCell id="QKTyw7EAt9zANaS0hbVl-267" value="eId" style="shape=partialRectangle;html=1;whiteSpace=wrap;connectable=0;strokeColor=inherit;overflow=hidden;fillColor=none;top=0;left=0;bottom=0;right=0;pointerEvents=1;" vertex="1" parent="QKTyw7EAt9zANaS0hbVl-245">
          <mxGeometry x="120" width="60" height="40" as="geometry">
            <mxRectangle width="60" height="40" as="alternateBounds" />
          </mxGeometry>
        </mxCell>
        <mxCell id="QKTyw7EAt9zANaS0hbVl-248" value="" style="shape=table;startSize=0;container=1;collapsible=0;childLayout=tableLayout;" vertex="1" parent="1">
          <mxGeometry x="2560" y="290" width="180" height="40" as="geometry" />
        </mxCell>
        <mxCell id="QKTyw7EAt9zANaS0hbVl-249" value="" style="shape=tableRow;horizontal=0;startSize=0;swimlaneHead=0;swimlaneBody=0;strokeColor=inherit;top=0;left=0;bottom=0;right=0;collapsible=0;dropTarget=0;fillColor=none;points=[[0,0.5],[1,0.5]];portConstraint=eastwest;" vertex="1" parent="QKTyw7EAt9zANaS0hbVl-248">
          <mxGeometry width="180" height="40" as="geometry" />
        </mxCell>
        <mxCell id="QKTyw7EAt9zANaS0hbVl-250" value="&lt;u&gt;id&lt;/u&gt;" style="shape=partialRectangle;html=1;whiteSpace=wrap;connectable=0;strokeColor=inherit;overflow=hidden;fillColor=none;top=0;left=0;bottom=0;right=0;pointerEvents=1;" vertex="1" parent="QKTyw7EAt9zANaS0hbVl-249">
          <mxGeometry width="60" height="40" as="geometry">
            <mxRectangle width="60" height="40" as="alternateBounds" />
          </mxGeometry>
        </mxCell>
        <mxCell id="QKTyw7EAt9zANaS0hbVl-251" value="name" style="shape=partialRectangle;html=1;whiteSpace=wrap;connectable=0;strokeColor=inherit;overflow=hidden;fillColor=none;top=0;left=0;bottom=0;right=0;pointerEvents=1;" vertex="1" parent="QKTyw7EAt9zANaS0hbVl-249">
          <mxGeometry x="60" width="60" height="40" as="geometry">
            <mxRectangle width="60" height="40" as="alternateBounds" />
          </mxGeometry>
        </mxCell>
        <mxCell id="QKTyw7EAt9zANaS0hbVl-270" value="Sid" style="shape=partialRectangle;html=1;whiteSpace=wrap;connectable=0;strokeColor=inherit;overflow=hidden;fillColor=none;top=0;left=0;bottom=0;right=0;pointerEvents=1;" vertex="1" parent="QKTyw7EAt9zANaS0hbVl-249">
          <mxGeometry x="120" width="60" height="40" as="geometry">
            <mxRectangle width="60" height="40" as="alternateBounds" />
          </mxGeometry>
        </mxCell>
        <mxCell id="QKTyw7EAt9zANaS0hbVl-252" value="" style="shape=table;startSize=0;container=1;collapsible=0;childLayout=tableLayout;" vertex="1" parent="1">
          <mxGeometry x="2560" y="380" width="360" height="40" as="geometry" />
        </mxCell>
        <mxCell id="QKTyw7EAt9zANaS0hbVl-253" value="" style="shape=tableRow;horizontal=0;startSize=0;swimlaneHead=0;swimlaneBody=0;strokeColor=inherit;top=0;left=0;bottom=0;right=0;collapsible=0;dropTarget=0;fillColor=none;points=[[0,0.5],[1,0.5]];portConstraint=eastwest;" vertex="1" parent="QKTyw7EAt9zANaS0hbVl-252">
          <mxGeometry width="360" height="40" as="geometry" />
        </mxCell>
        <mxCell id="QKTyw7EAt9zANaS0hbVl-254" value="&lt;u&gt;id&lt;/u&gt;" style="shape=partialRectangle;html=1;whiteSpace=wrap;connectable=0;strokeColor=inherit;overflow=hidden;fillColor=none;top=0;left=0;bottom=0;right=0;pointerEvents=1;" vertex="1" parent="QKTyw7EAt9zANaS0hbVl-253">
          <mxGeometry width="60" height="40" as="geometry">
            <mxRectangle width="60" height="40" as="alternateBounds" />
          </mxGeometry>
        </mxCell>
        <mxCell id="QKTyw7EAt9zANaS0hbVl-255" value="address" style="shape=partialRectangle;html=1;whiteSpace=wrap;connectable=0;strokeColor=inherit;overflow=hidden;fillColor=none;top=0;left=0;bottom=0;right=0;pointerEvents=1;" vertex="1" parent="QKTyw7EAt9zANaS0hbVl-253">
          <mxGeometry x="60" width="60" height="40" as="geometry">
            <mxRectangle width="60" height="40" as="alternateBounds" />
          </mxGeometry>
        </mxCell>
        <mxCell id="QKTyw7EAt9zANaS0hbVl-256" value="city" style="shape=partialRectangle;html=1;whiteSpace=wrap;connectable=0;strokeColor=inherit;overflow=hidden;fillColor=none;top=0;left=0;bottom=0;right=0;pointerEvents=1;" vertex="1" parent="QKTyw7EAt9zANaS0hbVl-253">
          <mxGeometry x="120" width="60" height="40" as="geometry">
            <mxRectangle width="60" height="40" as="alternateBounds" />
          </mxGeometry>
        </mxCell>
        <mxCell id="QKTyw7EAt9zANaS0hbVl-257" value="state" style="shape=partialRectangle;html=1;whiteSpace=wrap;connectable=0;strokeColor=inherit;overflow=hidden;fillColor=none;top=0;left=0;bottom=0;right=0;pointerEvents=1;" vertex="1" parent="QKTyw7EAt9zANaS0hbVl-253">
          <mxGeometry x="180" width="60" height="40" as="geometry">
            <mxRectangle width="60" height="40" as="alternateBounds" />
          </mxGeometry>
        </mxCell>
        <mxCell id="QKTyw7EAt9zANaS0hbVl-258" value="code" style="shape=partialRectangle;html=1;whiteSpace=wrap;connectable=0;strokeColor=inherit;overflow=hidden;fillColor=none;top=0;left=0;bottom=0;right=0;pointerEvents=1;" vertex="1" parent="QKTyw7EAt9zANaS0hbVl-253">
          <mxGeometry x="240" width="60" height="40" as="geometry">
            <mxRectangle width="60" height="40" as="alternateBounds" />
          </mxGeometry>
        </mxCell>
        <mxCell id="QKTyw7EAt9zANaS0hbVl-273" value="Sid" style="shape=partialRectangle;html=1;whiteSpace=wrap;connectable=0;strokeColor=inherit;overflow=hidden;fillColor=none;top=0;left=0;bottom=0;right=0;pointerEvents=1;" vertex="1" parent="QKTyw7EAt9zANaS0hbVl-253">
          <mxGeometry x="300" width="60" height="40" as="geometry">
            <mxRectangle width="60" height="40" as="alternateBounds" />
          </mxGeometry>
        </mxCell>
        <mxCell id="QKTyw7EAt9zANaS0hbVl-259" value="" style="shape=table;startSize=0;container=1;collapsible=0;childLayout=tableLayout;" vertex="1" parent="1">
          <mxGeometry x="2560" y="470" width="120" height="40" as="geometry" />
        </mxCell>
        <mxCell id="QKTyw7EAt9zANaS0hbVl-260" value="" style="shape=tableRow;horizontal=0;startSize=0;swimlaneHead=0;swimlaneBody=0;strokeColor=inherit;top=0;left=0;bottom=0;right=0;collapsible=0;dropTarget=0;fillColor=none;points=[[0,0.5],[1,0.5]];portConstraint=eastwest;" vertex="1" parent="QKTyw7EAt9zANaS0hbVl-259">
          <mxGeometry width="120" height="40" as="geometry" />
        </mxCell>
        <mxCell id="QKTyw7EAt9zANaS0hbVl-261" value="&lt;u&gt;id&lt;/u&gt;" style="shape=partialRectangle;html=1;whiteSpace=wrap;connectable=0;strokeColor=inherit;overflow=hidden;fillColor=none;top=0;left=0;bottom=0;right=0;pointerEvents=1;" vertex="1" parent="QKTyw7EAt9zANaS0hbVl-260">
          <mxGeometry width="60" height="40" as="geometry">
            <mxRectangle width="60" height="40" as="alternateBounds" />
          </mxGeometry>
        </mxCell>
        <mxCell id="QKTyw7EAt9zANaS0hbVl-262" value="name" style="shape=partialRectangle;html=1;whiteSpace=wrap;connectable=0;strokeColor=inherit;overflow=hidden;fillColor=none;top=0;left=0;bottom=0;right=0;pointerEvents=1;" vertex="1" parent="QKTyw7EAt9zANaS0hbVl-260">
          <mxGeometry x="60" width="60" height="40" as="geometry">
            <mxRectangle width="60" height="40" as="alternateBounds" />
          </mxGeometry>
        </mxCell>
        <mxCell id="QKTyw7EAt9zANaS0hbVl-263" value="sales_office" style="text;html=1;align=center;verticalAlign=middle;whiteSpace=wrap;rounded=0;" vertex="1" parent="1">
          <mxGeometry x="2560" y="170" width="60" height="30" as="geometry" />
        </mxCell>
        <mxCell id="QKTyw7EAt9zANaS0hbVl-264" value="employee" style="text;html=1;align=center;verticalAlign=middle;whiteSpace=wrap;rounded=0;" vertex="1" parent="1">
          <mxGeometry x="2560" y="260" width="60" height="30" as="geometry" />
        </mxCell>
        <mxCell id="QKTyw7EAt9zANaS0hbVl-265" value="property" style="text;html=1;align=center;verticalAlign=middle;whiteSpace=wrap;rounded=0;" vertex="1" parent="1">
          <mxGeometry x="2560" y="350" width="60" height="30" as="geometry" />
        </mxCell>
        <mxCell id="QKTyw7EAt9zANaS0hbVl-266" value="owner" style="text;html=1;align=center;verticalAlign=middle;whiteSpace=wrap;rounded=0;" vertex="1" parent="1">
          <mxGeometry x="2560" y="440" width="60" height="30" as="geometry" />
        </mxCell>
        <mxCell id="QKTyw7EAt9zANaS0hbVl-268" value="" style="endArrow=none;dashed=1;html=1;dashPattern=1 3;strokeWidth=2;rounded=0;" edge="1" parent="1">
          <mxGeometry width="50" height="50" relative="1" as="geometry">
            <mxPoint x="2680" y="230" as="sourcePoint" />
            <mxPoint x="2740" y="230" as="targetPoint" />
          </mxGeometry>
        </mxCell>
        <mxCell id="QKTyw7EAt9zANaS0hbVl-269" style="edgeStyle=orthogonalEdgeStyle;rounded=0;orthogonalLoop=1;jettySize=auto;html=1;entryX=0;entryY=0.5;entryDx=0;entryDy=0;" edge="1" parent="1" source="QKTyw7EAt9zANaS0hbVl-245" target="QKTyw7EAt9zANaS0hbVl-249">
          <mxGeometry relative="1" as="geometry">
            <Array as="points">
              <mxPoint x="2720" y="260" />
              <mxPoint x="2540" y="260" />
              <mxPoint x="2540" y="310" />
            </Array>
          </mxGeometry>
        </mxCell>
        <mxCell id="QKTyw7EAt9zANaS0hbVl-271" value="" style="endArrow=none;dashed=1;html=1;dashPattern=1 3;strokeWidth=2;rounded=0;" edge="1" parent="1">
          <mxGeometry width="50" height="50" relative="1" as="geometry">
            <mxPoint x="2680" y="320" as="sourcePoint" />
            <mxPoint x="2740" y="320" as="targetPoint" />
          </mxGeometry>
        </mxCell>
        <mxCell id="QKTyw7EAt9zANaS0hbVl-272" style="edgeStyle=orthogonalEdgeStyle;rounded=0;orthogonalLoop=1;jettySize=auto;html=1;entryX=0;entryY=0.5;entryDx=0;entryDy=0;" edge="1" parent="1" source="QKTyw7EAt9zANaS0hbVl-249" target="QKTyw7EAt9zANaS0hbVl-245">
          <mxGeometry relative="1" as="geometry">
            <Array as="points">
              <mxPoint x="2710" y="350" />
              <mxPoint x="2520" y="350" />
              <mxPoint x="2520" y="220" />
            </Array>
          </mxGeometry>
        </mxCell>
        <mxCell id="QKTyw7EAt9zANaS0hbVl-274" value="" style="endArrow=none;dashed=1;html=1;dashPattern=1 3;strokeWidth=2;rounded=0;" edge="1" parent="1">
          <mxGeometry width="50" height="50" relative="1" as="geometry">
            <mxPoint x="2860" y="409.57" as="sourcePoint" />
            <mxPoint x="2920" y="409.57" as="targetPoint" />
          </mxGeometry>
        </mxCell>
        <mxCell id="QKTyw7EAt9zANaS0hbVl-275" style="edgeStyle=orthogonalEdgeStyle;rounded=0;orthogonalLoop=1;jettySize=auto;html=1;entryX=0;entryY=0.5;entryDx=0;entryDy=0;" edge="1" parent="1" source="QKTyw7EAt9zANaS0hbVl-253" target="QKTyw7EAt9zANaS0hbVl-245">
          <mxGeometry relative="1" as="geometry">
            <Array as="points">
              <mxPoint x="2890" y="430" />
              <mxPoint x="2500" y="430" />
              <mxPoint x="2500" y="220" />
            </Array>
          </mxGeometry>
        </mxCell>
        <mxCell id="QKTyw7EAt9zANaS0hbVl-277" value="" style="shape=table;startSize=0;container=1;collapsible=0;childLayout=tableLayout;" vertex="1" parent="1">
          <mxGeometry x="2560" y="555" width="180" height="40" as="geometry" />
        </mxCell>
        <mxCell id="QKTyw7EAt9zANaS0hbVl-278" value="" style="shape=tableRow;horizontal=0;startSize=0;swimlaneHead=0;swimlaneBody=0;strokeColor=inherit;top=0;left=0;bottom=0;right=0;collapsible=0;dropTarget=0;fillColor=none;points=[[0,0.5],[1,0.5]];portConstraint=eastwest;" vertex="1" parent="QKTyw7EAt9zANaS0hbVl-277">
          <mxGeometry width="180" height="40" as="geometry" />
        </mxCell>
        <mxCell id="QKTyw7EAt9zANaS0hbVl-279" value="Pid" style="shape=partialRectangle;html=1;whiteSpace=wrap;connectable=0;strokeColor=inherit;overflow=hidden;fillColor=none;top=0;left=0;bottom=0;right=0;pointerEvents=1;" vertex="1" parent="QKTyw7EAt9zANaS0hbVl-278">
          <mxGeometry width="60" height="40" as="geometry">
            <mxRectangle width="60" height="40" as="alternateBounds" />
          </mxGeometry>
        </mxCell>
        <mxCell id="QKTyw7EAt9zANaS0hbVl-280" value="Oid" style="shape=partialRectangle;html=1;whiteSpace=wrap;connectable=0;strokeColor=inherit;overflow=hidden;fillColor=none;top=0;left=0;bottom=0;right=0;pointerEvents=1;" vertex="1" parent="QKTyw7EAt9zANaS0hbVl-278">
          <mxGeometry x="60" width="60" height="40" as="geometry">
            <mxRectangle width="60" height="40" as="alternateBounds" />
          </mxGeometry>
        </mxCell>
        <mxCell id="QKTyw7EAt9zANaS0hbVl-286" value="precent" style="shape=partialRectangle;html=1;whiteSpace=wrap;connectable=0;strokeColor=inherit;overflow=hidden;fillColor=none;top=0;left=0;bottom=0;right=0;pointerEvents=1;" vertex="1" parent="QKTyw7EAt9zANaS0hbVl-278">
          <mxGeometry x="120" width="60" height="40" as="geometry">
            <mxRectangle width="60" height="40" as="alternateBounds" />
          </mxGeometry>
        </mxCell>
        <mxCell id="QKTyw7EAt9zANaS0hbVl-281" value="owned" style="text;html=1;align=center;verticalAlign=middle;whiteSpace=wrap;rounded=0;" vertex="1" parent="1">
          <mxGeometry x="2560" y="525" width="60" height="30" as="geometry" />
        </mxCell>
        <mxCell id="QKTyw7EAt9zANaS0hbVl-282" value="" style="endArrow=none;dashed=1;html=1;dashPattern=1 3;strokeWidth=2;rounded=0;" edge="1" parent="1">
          <mxGeometry width="50" height="50" relative="1" as="geometry">
            <mxPoint x="2620" y="580" as="sourcePoint" />
            <mxPoint x="2680" y="580" as="targetPoint" />
          </mxGeometry>
        </mxCell>
        <mxCell id="QKTyw7EAt9zANaS0hbVl-283" value="" style="endArrow=none;dashed=1;html=1;dashPattern=1 3;strokeWidth=2;rounded=0;" edge="1" parent="1">
          <mxGeometry width="50" height="50" relative="1" as="geometry">
            <mxPoint x="2560" y="580" as="sourcePoint" />
            <mxPoint x="2620" y="580" as="targetPoint" />
          </mxGeometry>
        </mxCell>
        <mxCell id="QKTyw7EAt9zANaS0hbVl-284" style="edgeStyle=orthogonalEdgeStyle;rounded=0;orthogonalLoop=1;jettySize=auto;html=1;entryX=0;entryY=0.5;entryDx=0;entryDy=0;" edge="1" parent="1" source="QKTyw7EAt9zANaS0hbVl-278" target="QKTyw7EAt9zANaS0hbVl-253">
          <mxGeometry relative="1" as="geometry">
            <Array as="points">
              <mxPoint x="2530" y="575" />
              <mxPoint x="2530" y="400" />
            </Array>
          </mxGeometry>
        </mxCell>
        <mxCell id="QKTyw7EAt9zANaS0hbVl-285" style="edgeStyle=orthogonalEdgeStyle;rounded=0;orthogonalLoop=1;jettySize=auto;html=1;entryX=0.004;entryY=0.671;entryDx=0;entryDy=0;entryPerimeter=0;" edge="1" parent="1" source="QKTyw7EAt9zANaS0hbVl-278" target="QKTyw7EAt9zANaS0hbVl-260">
          <mxGeometry relative="1" as="geometry">
            <Array as="points">
              <mxPoint x="2650" y="530" />
              <mxPoint x="2561" y="530" />
            </Array>
          </mxGeometry>
        </mxCell>
        <mxCell id="QKTyw7EAt9zANaS0hbVl-287" value="iti" style="text;html=1;align=center;verticalAlign=middle;whiteSpace=wrap;rounded=0;" vertex="1" parent="1">
          <mxGeometry x="3430" y="120" width="60" height="30" as="geometry" />
        </mxCell>
        <mxCell id="QKTyw7EAt9zANaS0hbVl-288" value="" style="shape=table;startSize=0;container=1;collapsible=0;childLayout=tableLayout;" vertex="1" parent="1">
          <mxGeometry x="3420" y="200" width="360" height="40" as="geometry" />
        </mxCell>
        <mxCell id="QKTyw7EAt9zANaS0hbVl-289" value="" style="shape=tableRow;horizontal=0;startSize=0;swimlaneHead=0;swimlaneBody=0;strokeColor=inherit;top=0;left=0;bottom=0;right=0;collapsible=0;dropTarget=0;fillColor=none;points=[[0,0.5],[1,0.5]];portConstraint=eastwest;" vertex="1" parent="QKTyw7EAt9zANaS0hbVl-288">
          <mxGeometry width="360" height="40" as="geometry" />
        </mxCell>
        <mxCell id="QKTyw7EAt9zANaS0hbVl-290" value="&lt;u&gt;id&lt;/u&gt;" style="shape=partialRectangle;html=1;whiteSpace=wrap;connectable=0;strokeColor=inherit;overflow=hidden;fillColor=none;top=0;left=0;bottom=0;right=0;pointerEvents=1;" vertex="1" parent="QKTyw7EAt9zANaS0hbVl-289">
          <mxGeometry width="60" height="40" as="geometry">
            <mxRectangle width="60" height="40" as="alternateBounds" />
          </mxGeometry>
        </mxCell>
        <mxCell id="QKTyw7EAt9zANaS0hbVl-291" value="fname" style="shape=partialRectangle;html=1;whiteSpace=wrap;connectable=0;strokeColor=inherit;overflow=hidden;fillColor=none;top=0;left=0;bottom=0;right=0;pointerEvents=1;" vertex="1" parent="QKTyw7EAt9zANaS0hbVl-289">
          <mxGeometry x="60" width="60" height="40" as="geometry">
            <mxRectangle width="60" height="40" as="alternateBounds" />
          </mxGeometry>
        </mxCell>
        <mxCell id="QKTyw7EAt9zANaS0hbVl-292" value="lname" style="shape=partialRectangle;html=1;whiteSpace=wrap;connectable=0;strokeColor=inherit;overflow=hidden;fillColor=none;top=0;left=0;bottom=0;right=0;pointerEvents=1;" vertex="1" parent="QKTyw7EAt9zANaS0hbVl-289">
          <mxGeometry x="120" width="60" height="40" as="geometry">
            <mxRectangle width="60" height="40" as="alternateBounds" />
          </mxGeometry>
        </mxCell>
        <mxCell id="QKTyw7EAt9zANaS0hbVl-293" value="age" style="shape=partialRectangle;html=1;whiteSpace=wrap;connectable=0;strokeColor=inherit;overflow=hidden;fillColor=none;top=0;left=0;bottom=0;right=0;pointerEvents=1;" vertex="1" parent="QKTyw7EAt9zANaS0hbVl-289">
          <mxGeometry x="180" width="60" height="40" as="geometry">
            <mxRectangle width="60" height="40" as="alternateBounds" />
          </mxGeometry>
        </mxCell>
        <mxCell id="QKTyw7EAt9zANaS0hbVl-294" value="address" style="shape=partialRectangle;html=1;whiteSpace=wrap;connectable=0;strokeColor=inherit;overflow=hidden;fillColor=none;top=0;left=0;bottom=0;right=0;pointerEvents=1;" vertex="1" parent="QKTyw7EAt9zANaS0hbVl-289">
          <mxGeometry x="240" width="60" height="40" as="geometry">
            <mxRectangle width="60" height="40" as="alternateBounds" />
          </mxGeometry>
        </mxCell>
        <mxCell id="QKTyw7EAt9zANaS0hbVl-328" value="Did" style="shape=partialRectangle;html=1;whiteSpace=wrap;connectable=0;strokeColor=inherit;overflow=hidden;fillColor=none;top=0;left=0;bottom=0;right=0;pointerEvents=1;" vertex="1" parent="QKTyw7EAt9zANaS0hbVl-289">
          <mxGeometry x="300" width="60" height="40" as="geometry">
            <mxRectangle width="60" height="40" as="alternateBounds" />
          </mxGeometry>
        </mxCell>
        <mxCell id="QKTyw7EAt9zANaS0hbVl-295" value="" style="shape=table;startSize=0;container=1;collapsible=0;childLayout=tableLayout;" vertex="1" parent="1">
          <mxGeometry x="3420" y="320" width="300" height="40" as="geometry" />
        </mxCell>
        <mxCell id="QKTyw7EAt9zANaS0hbVl-296" value="" style="shape=tableRow;horizontal=0;startSize=0;swimlaneHead=0;swimlaneBody=0;strokeColor=inherit;top=0;left=0;bottom=0;right=0;collapsible=0;dropTarget=0;fillColor=none;points=[[0,0.5],[1,0.5]];portConstraint=eastwest;" vertex="1" parent="QKTyw7EAt9zANaS0hbVl-295">
          <mxGeometry width="300" height="40" as="geometry" />
        </mxCell>
        <mxCell id="QKTyw7EAt9zANaS0hbVl-297" value="&lt;u&gt;id&lt;/u&gt;" style="shape=partialRectangle;html=1;whiteSpace=wrap;connectable=0;strokeColor=inherit;overflow=hidden;fillColor=none;top=0;left=0;bottom=0;right=0;pointerEvents=1;" vertex="1" parent="QKTyw7EAt9zANaS0hbVl-296">
          <mxGeometry width="60" height="40" as="geometry">
            <mxRectangle width="60" height="40" as="alternateBounds" />
          </mxGeometry>
        </mxCell>
        <mxCell id="QKTyw7EAt9zANaS0hbVl-298" value="name" style="shape=partialRectangle;html=1;whiteSpace=wrap;connectable=0;strokeColor=inherit;overflow=hidden;fillColor=none;top=0;left=0;bottom=0;right=0;pointerEvents=1;" vertex="1" parent="QKTyw7EAt9zANaS0hbVl-296">
          <mxGeometry x="60" width="60" height="40" as="geometry">
            <mxRectangle width="60" height="40" as="alternateBounds" />
          </mxGeometry>
        </mxCell>
        <mxCell id="QKTyw7EAt9zANaS0hbVl-299" value="duration" style="shape=partialRectangle;html=1;whiteSpace=wrap;connectable=0;strokeColor=inherit;overflow=hidden;fillColor=none;top=0;left=0;bottom=0;right=0;pointerEvents=1;" vertex="1" parent="QKTyw7EAt9zANaS0hbVl-296">
          <mxGeometry x="120" width="60" height="40" as="geometry">
            <mxRectangle width="60" height="40" as="alternateBounds" />
          </mxGeometry>
        </mxCell>
        <mxCell id="QKTyw7EAt9zANaS0hbVl-300" value="desc" style="shape=partialRectangle;html=1;whiteSpace=wrap;connectable=0;strokeColor=inherit;overflow=hidden;fillColor=none;top=0;left=0;bottom=0;right=0;pointerEvents=1;" vertex="1" parent="QKTyw7EAt9zANaS0hbVl-296">
          <mxGeometry x="180" width="60" height="40" as="geometry">
            <mxRectangle width="60" height="40" as="alternateBounds" />
          </mxGeometry>
        </mxCell>
        <mxCell id="QKTyw7EAt9zANaS0hbVl-325" value="Tid" style="shape=partialRectangle;html=1;whiteSpace=wrap;connectable=0;strokeColor=inherit;overflow=hidden;fillColor=none;top=0;left=0;bottom=0;right=0;pointerEvents=1;" vertex="1" parent="QKTyw7EAt9zANaS0hbVl-296">
          <mxGeometry x="240" width="60" height="40" as="geometry">
            <mxRectangle width="60" height="40" as="alternateBounds" />
          </mxGeometry>
        </mxCell>
        <mxCell id="QKTyw7EAt9zANaS0hbVl-301" value="" style="shape=table;startSize=0;container=1;collapsible=0;childLayout=tableLayout;" vertex="1" parent="1">
          <mxGeometry x="3420" y="445" width="120" height="40" as="geometry" />
        </mxCell>
        <mxCell id="QKTyw7EAt9zANaS0hbVl-302" value="" style="shape=tableRow;horizontal=0;startSize=0;swimlaneHead=0;swimlaneBody=0;strokeColor=inherit;top=0;left=0;bottom=0;right=0;collapsible=0;dropTarget=0;fillColor=none;points=[[0,0.5],[1,0.5]];portConstraint=eastwest;" vertex="1" parent="QKTyw7EAt9zANaS0hbVl-301">
          <mxGeometry width="120" height="40" as="geometry" />
        </mxCell>
        <mxCell id="QKTyw7EAt9zANaS0hbVl-303" value="&lt;u&gt;id&lt;/u&gt;" style="shape=partialRectangle;html=1;whiteSpace=wrap;connectable=0;strokeColor=inherit;overflow=hidden;fillColor=none;top=0;left=0;bottom=0;right=0;pointerEvents=1;" vertex="1" parent="QKTyw7EAt9zANaS0hbVl-302">
          <mxGeometry width="60" height="40" as="geometry">
            <mxRectangle width="60" height="40" as="alternateBounds" />
          </mxGeometry>
        </mxCell>
        <mxCell id="QKTyw7EAt9zANaS0hbVl-304" value="name" style="shape=partialRectangle;html=1;whiteSpace=wrap;connectable=0;strokeColor=inherit;overflow=hidden;fillColor=none;top=0;left=0;bottom=0;right=0;pointerEvents=1;" vertex="1" parent="QKTyw7EAt9zANaS0hbVl-302">
          <mxGeometry x="60" width="60" height="40" as="geometry">
            <mxRectangle width="60" height="40" as="alternateBounds" />
          </mxGeometry>
        </mxCell>
        <mxCell id="QKTyw7EAt9zANaS0hbVl-305" value="" style="shape=table;startSize=0;container=1;collapsible=0;childLayout=tableLayout;" vertex="1" parent="1">
          <mxGeometry x="3420" y="560" width="120" height="40" as="geometry" />
        </mxCell>
        <mxCell id="QKTyw7EAt9zANaS0hbVl-306" value="" style="shape=tableRow;horizontal=0;startSize=0;swimlaneHead=0;swimlaneBody=0;strokeColor=inherit;top=0;left=0;bottom=0;right=0;collapsible=0;dropTarget=0;fillColor=none;points=[[0,0.5],[1,0.5]];portConstraint=eastwest;" vertex="1" parent="QKTyw7EAt9zANaS0hbVl-305">
          <mxGeometry width="120" height="40" as="geometry" />
        </mxCell>
        <mxCell id="QKTyw7EAt9zANaS0hbVl-307" value="&lt;u&gt;id&lt;/u&gt;" style="shape=partialRectangle;html=1;whiteSpace=wrap;connectable=0;strokeColor=inherit;overflow=hidden;fillColor=none;top=0;left=0;bottom=0;right=0;pointerEvents=1;" vertex="1" parent="QKTyw7EAt9zANaS0hbVl-306">
          <mxGeometry width="60" height="40" as="geometry">
            <mxRectangle width="60" height="40" as="alternateBounds" />
          </mxGeometry>
        </mxCell>
        <mxCell id="QKTyw7EAt9zANaS0hbVl-308" value="name" style="shape=partialRectangle;html=1;whiteSpace=wrap;connectable=0;strokeColor=inherit;overflow=hidden;fillColor=none;top=0;left=0;bottom=0;right=0;pointerEvents=1;" vertex="1" parent="QKTyw7EAt9zANaS0hbVl-306">
          <mxGeometry x="60" width="60" height="40" as="geometry">
            <mxRectangle width="60" height="40" as="alternateBounds" />
          </mxGeometry>
        </mxCell>
        <mxCell id="QKTyw7EAt9zANaS0hbVl-309" value="" style="shape=table;startSize=0;container=1;collapsible=0;childLayout=tableLayout;" vertex="1" parent="1">
          <mxGeometry x="3420" y="680" width="480" height="40" as="geometry" />
        </mxCell>
        <mxCell id="QKTyw7EAt9zANaS0hbVl-310" value="" style="shape=tableRow;horizontal=0;startSize=0;swimlaneHead=0;swimlaneBody=0;strokeColor=inherit;top=0;left=0;bottom=0;right=0;collapsible=0;dropTarget=0;fillColor=none;points=[[0,0.5],[1,0.5]];portConstraint=eastwest;" vertex="1" parent="QKTyw7EAt9zANaS0hbVl-309">
          <mxGeometry width="480" height="40" as="geometry" />
        </mxCell>
        <mxCell id="QKTyw7EAt9zANaS0hbVl-311" value="&lt;u&gt;id&lt;/u&gt;" style="shape=partialRectangle;html=1;whiteSpace=wrap;connectable=0;strokeColor=inherit;overflow=hidden;fillColor=none;top=0;left=0;bottom=0;right=0;pointerEvents=1;" vertex="1" parent="QKTyw7EAt9zANaS0hbVl-310">
          <mxGeometry width="60" height="40" as="geometry">
            <mxRectangle width="60" height="40" as="alternateBounds" />
          </mxGeometry>
        </mxCell>
        <mxCell id="QKTyw7EAt9zANaS0hbVl-312" value="name" style="shape=partialRectangle;html=1;whiteSpace=wrap;connectable=0;strokeColor=inherit;overflow=hidden;fillColor=none;top=0;left=0;bottom=0;right=0;pointerEvents=1;" vertex="1" parent="QKTyw7EAt9zANaS0hbVl-310">
          <mxGeometry x="60" width="60" height="40" as="geometry">
            <mxRectangle width="60" height="40" as="alternateBounds" />
          </mxGeometry>
        </mxCell>
        <mxCell id="QKTyw7EAt9zANaS0hbVl-313" value="bonus" style="shape=partialRectangle;html=1;whiteSpace=wrap;connectable=0;strokeColor=inherit;overflow=hidden;fillColor=none;top=0;left=0;bottom=0;right=0;pointerEvents=1;" vertex="1" parent="QKTyw7EAt9zANaS0hbVl-310">
          <mxGeometry x="120" width="60" height="40" as="geometry">
            <mxRectangle width="60" height="40" as="alternateBounds" />
          </mxGeometry>
        </mxCell>
        <mxCell id="QKTyw7EAt9zANaS0hbVl-314" value="address" style="shape=partialRectangle;html=1;whiteSpace=wrap;connectable=0;strokeColor=inherit;overflow=hidden;fillColor=none;top=0;left=0;bottom=0;right=0;pointerEvents=1;" vertex="1" parent="QKTyw7EAt9zANaS0hbVl-310">
          <mxGeometry x="180" width="60" height="40" as="geometry">
            <mxRectangle width="60" height="40" as="alternateBounds" />
          </mxGeometry>
        </mxCell>
        <mxCell id="QKTyw7EAt9zANaS0hbVl-315" value="salary" style="shape=partialRectangle;html=1;whiteSpace=wrap;connectable=0;strokeColor=inherit;overflow=hidden;fillColor=none;top=0;left=0;bottom=0;right=0;pointerEvents=1;" vertex="1" parent="QKTyw7EAt9zANaS0hbVl-310">
          <mxGeometry x="240" width="60" height="40" as="geometry">
            <mxRectangle width="60" height="40" as="alternateBounds" />
          </mxGeometry>
        </mxCell>
        <mxCell id="QKTyw7EAt9zANaS0hbVl-316" value="hour_rate" style="shape=partialRectangle;html=1;whiteSpace=wrap;connectable=0;strokeColor=inherit;overflow=hidden;fillColor=none;top=0;left=0;bottom=0;right=0;pointerEvents=1;" vertex="1" parent="QKTyw7EAt9zANaS0hbVl-310">
          <mxGeometry x="300" width="60" height="40" as="geometry">
            <mxRectangle width="60" height="40" as="alternateBounds" />
          </mxGeometry>
        </mxCell>
        <mxCell id="QKTyw7EAt9zANaS0hbVl-322" value="Did" style="shape=partialRectangle;html=1;whiteSpace=wrap;connectable=0;strokeColor=inherit;overflow=hidden;fillColor=none;top=0;left=0;bottom=0;right=0;pointerEvents=1;" vertex="1" parent="QKTyw7EAt9zANaS0hbVl-310">
          <mxGeometry x="360" width="60" height="40" as="geometry">
            <mxRectangle width="60" height="40" as="alternateBounds" />
          </mxGeometry>
        </mxCell>
        <mxCell id="QKTyw7EAt9zANaS0hbVl-331" value="H_date" style="shape=partialRectangle;html=1;whiteSpace=wrap;connectable=0;strokeColor=inherit;overflow=hidden;fillColor=none;top=0;left=0;bottom=0;right=0;pointerEvents=1;" vertex="1" parent="QKTyw7EAt9zANaS0hbVl-310">
          <mxGeometry x="420" width="60" height="40" as="geometry">
            <mxRectangle width="60" height="40" as="alternateBounds" />
          </mxGeometry>
        </mxCell>
        <mxCell id="QKTyw7EAt9zANaS0hbVl-317" value="student" style="text;html=1;align=center;verticalAlign=middle;whiteSpace=wrap;rounded=0;" vertex="1" parent="1">
          <mxGeometry x="3420" y="170" width="60" height="30" as="geometry" />
        </mxCell>
        <mxCell id="QKTyw7EAt9zANaS0hbVl-318" value="course" style="text;html=1;align=center;verticalAlign=middle;whiteSpace=wrap;rounded=0;" vertex="1" parent="1">
          <mxGeometry x="3420" y="290" width="60" height="30" as="geometry" />
        </mxCell>
        <mxCell id="QKTyw7EAt9zANaS0hbVl-319" value="topic" style="text;html=1;align=center;verticalAlign=middle;whiteSpace=wrap;rounded=0;" vertex="1" parent="1">
          <mxGeometry x="3420" y="410" width="60" height="30" as="geometry" />
        </mxCell>
        <mxCell id="QKTyw7EAt9zANaS0hbVl-320" value="department" style="text;html=1;align=center;verticalAlign=middle;whiteSpace=wrap;rounded=0;" vertex="1" parent="1">
          <mxGeometry x="3420" y="530" width="60" height="30" as="geometry" />
        </mxCell>
        <mxCell id="QKTyw7EAt9zANaS0hbVl-321" value="instractor" style="text;html=1;align=center;verticalAlign=middle;whiteSpace=wrap;rounded=0;" vertex="1" parent="1">
          <mxGeometry x="3420" y="650" width="60" height="30" as="geometry" />
        </mxCell>
        <mxCell id="QKTyw7EAt9zANaS0hbVl-323" value="" style="endArrow=none;dashed=1;html=1;dashPattern=1 3;strokeWidth=2;rounded=0;" edge="1" parent="1">
          <mxGeometry width="50" height="50" relative="1" as="geometry">
            <mxPoint x="3780" y="709.05" as="sourcePoint" />
            <mxPoint x="3840" y="709.05" as="targetPoint" />
          </mxGeometry>
        </mxCell>
        <mxCell id="QKTyw7EAt9zANaS0hbVl-324" style="edgeStyle=orthogonalEdgeStyle;rounded=0;orthogonalLoop=1;jettySize=auto;html=1;entryX=0;entryY=0.5;entryDx=0;entryDy=0;" edge="1" parent="1" source="QKTyw7EAt9zANaS0hbVl-310" target="QKTyw7EAt9zANaS0hbVl-306">
          <mxGeometry relative="1" as="geometry">
            <Array as="points">
              <mxPoint x="3800" y="630" />
              <mxPoint x="3400" y="630" />
              <mxPoint x="3400" y="580" />
            </Array>
          </mxGeometry>
        </mxCell>
        <mxCell id="QKTyw7EAt9zANaS0hbVl-326" value="" style="endArrow=none;dashed=1;html=1;dashPattern=1 3;strokeWidth=2;rounded=0;" edge="1" parent="1">
          <mxGeometry width="50" height="50" relative="1" as="geometry">
            <mxPoint x="3660" y="349.99999999999994" as="sourcePoint" />
            <mxPoint x="3720" y="349.99999999999994" as="targetPoint" />
          </mxGeometry>
        </mxCell>
        <mxCell id="QKTyw7EAt9zANaS0hbVl-327" style="edgeStyle=orthogonalEdgeStyle;rounded=0;orthogonalLoop=1;jettySize=auto;html=1;entryX=0;entryY=0.5;entryDx=0;entryDy=0;" edge="1" parent="1" source="QKTyw7EAt9zANaS0hbVl-296" target="QKTyw7EAt9zANaS0hbVl-302">
          <mxGeometry relative="1" as="geometry">
            <Array as="points">
              <mxPoint x="3690" y="400" />
              <mxPoint x="3400" y="400" />
              <mxPoint x="3400" y="465" />
            </Array>
          </mxGeometry>
        </mxCell>
        <mxCell id="QKTyw7EAt9zANaS0hbVl-329" value="" style="endArrow=none;dashed=1;html=1;dashPattern=1 3;strokeWidth=2;rounded=0;" edge="1" parent="1">
          <mxGeometry width="50" height="50" relative="1" as="geometry">
            <mxPoint x="3720" y="229.99999999999994" as="sourcePoint" />
            <mxPoint x="3780" y="229.99999999999994" as="targetPoint" />
          </mxGeometry>
        </mxCell>
        <mxCell id="QKTyw7EAt9zANaS0hbVl-330" style="edgeStyle=orthogonalEdgeStyle;rounded=0;orthogonalLoop=1;jettySize=auto;html=1;entryX=-0.003;entryY=0.308;entryDx=0;entryDy=0;entryPerimeter=0;" edge="1" parent="1" source="QKTyw7EAt9zANaS0hbVl-288" target="QKTyw7EAt9zANaS0hbVl-306">
          <mxGeometry relative="1" as="geometry">
            <Array as="points">
              <mxPoint x="3750" y="270" />
              <mxPoint x="3380" y="270" />
              <mxPoint x="3380" y="572" />
            </Array>
          </mxGeometry>
        </mxCell>
        <mxCell id="QKTyw7EAt9zANaS0hbVl-332" value="" style="shape=table;startSize=0;container=1;collapsible=0;childLayout=tableLayout;" vertex="1" parent="1">
          <mxGeometry x="3420" y="800" width="120" height="40" as="geometry" />
        </mxCell>
        <mxCell id="QKTyw7EAt9zANaS0hbVl-333" value="" style="shape=tableRow;horizontal=0;startSize=0;swimlaneHead=0;swimlaneBody=0;strokeColor=inherit;top=0;left=0;bottom=0;right=0;collapsible=0;dropTarget=0;fillColor=none;points=[[0,0.5],[1,0.5]];portConstraint=eastwest;" vertex="1" parent="QKTyw7EAt9zANaS0hbVl-332">
          <mxGeometry width="120" height="40" as="geometry" />
        </mxCell>
        <mxCell id="QKTyw7EAt9zANaS0hbVl-334" value="Sid" style="shape=partialRectangle;html=1;whiteSpace=wrap;connectable=0;strokeColor=inherit;overflow=hidden;fillColor=none;top=0;left=0;bottom=0;right=0;pointerEvents=1;" vertex="1" parent="QKTyw7EAt9zANaS0hbVl-333">
          <mxGeometry width="60" height="40" as="geometry">
            <mxRectangle width="60" height="40" as="alternateBounds" />
          </mxGeometry>
        </mxCell>
        <mxCell id="QKTyw7EAt9zANaS0hbVl-335" value="Cid" style="shape=partialRectangle;html=1;whiteSpace=wrap;connectable=0;strokeColor=inherit;overflow=hidden;fillColor=none;top=0;left=0;bottom=0;right=0;pointerEvents=1;" vertex="1" parent="QKTyw7EAt9zANaS0hbVl-333">
          <mxGeometry x="60" width="60" height="40" as="geometry">
            <mxRectangle width="60" height="40" as="alternateBounds" />
          </mxGeometry>
        </mxCell>
        <mxCell id="QKTyw7EAt9zANaS0hbVl-336" value="enroleld" style="text;html=1;align=center;verticalAlign=middle;whiteSpace=wrap;rounded=0;" vertex="1" parent="1">
          <mxGeometry x="3420" y="770" width="60" height="30" as="geometry" />
        </mxCell>
        <mxCell id="QKTyw7EAt9zANaS0hbVl-337" value="" style="endArrow=none;dashed=1;html=1;dashPattern=1 3;strokeWidth=2;rounded=0;" edge="1" parent="1">
          <mxGeometry width="50" height="50" relative="1" as="geometry">
            <mxPoint x="3480" y="829.05" as="sourcePoint" />
            <mxPoint x="3540" y="829.05" as="targetPoint" />
          </mxGeometry>
        </mxCell>
        <mxCell id="QKTyw7EAt9zANaS0hbVl-338" value="" style="endArrow=none;dashed=1;html=1;dashPattern=1 3;strokeWidth=2;rounded=0;" edge="1" parent="1">
          <mxGeometry width="50" height="50" relative="1" as="geometry">
            <mxPoint x="3420" y="829.05" as="sourcePoint" />
            <mxPoint x="3480" y="829.05" as="targetPoint" />
          </mxGeometry>
        </mxCell>
        <mxCell id="QKTyw7EAt9zANaS0hbVl-339" value="" style="endArrow=none;html=1;rounded=0;" edge="1" parent="1">
          <mxGeometry width="50" height="50" relative="1" as="geometry">
            <mxPoint x="3450" y="835" as="sourcePoint" />
            <mxPoint x="3520" y="835" as="targetPoint" />
          </mxGeometry>
        </mxCell>
        <mxCell id="QKTyw7EAt9zANaS0hbVl-340" style="edgeStyle=orthogonalEdgeStyle;rounded=0;orthogonalLoop=1;jettySize=auto;html=1;entryX=0;entryY=0.5;entryDx=0;entryDy=0;" edge="1" parent="1" source="QKTyw7EAt9zANaS0hbVl-333" target="QKTyw7EAt9zANaS0hbVl-289">
          <mxGeometry relative="1" as="geometry">
            <Array as="points">
              <mxPoint x="3360" y="820" />
              <mxPoint x="3360" y="220" />
            </Array>
          </mxGeometry>
        </mxCell>
        <mxCell id="QKTyw7EAt9zANaS0hbVl-341" style="edgeStyle=orthogonalEdgeStyle;rounded=0;orthogonalLoop=1;jettySize=auto;html=1;entryX=-0.001;entryY=0.689;entryDx=0;entryDy=0;entryPerimeter=0;" edge="1" parent="1" source="QKTyw7EAt9zANaS0hbVl-333" target="QKTyw7EAt9zANaS0hbVl-296">
          <mxGeometry relative="1" as="geometry">
            <Array as="points">
              <mxPoint x="3520" y="760" />
              <mxPoint x="3390" y="760" />
              <mxPoint x="3390" y="348" />
            </Array>
          </mxGeometry>
        </mxCell>
        <mxCell id="QKTyw7EAt9zANaS0hbVl-342" value="" style="shape=table;startSize=0;container=1;collapsible=0;childLayout=tableLayout;" vertex="1" parent="1">
          <mxGeometry x="3420" y="920" width="120" height="40" as="geometry" />
        </mxCell>
        <mxCell id="QKTyw7EAt9zANaS0hbVl-343" value="" style="shape=tableRow;horizontal=0;startSize=0;swimlaneHead=0;swimlaneBody=0;strokeColor=inherit;top=0;left=0;bottom=0;right=0;collapsible=0;dropTarget=0;fillColor=none;points=[[0,0.5],[1,0.5]];portConstraint=eastwest;" vertex="1" parent="QKTyw7EAt9zANaS0hbVl-342">
          <mxGeometry width="120" height="40" as="geometry" />
        </mxCell>
        <mxCell id="QKTyw7EAt9zANaS0hbVl-344" value="Cid" style="shape=partialRectangle;html=1;whiteSpace=wrap;connectable=0;strokeColor=inherit;overflow=hidden;fillColor=none;top=0;left=0;bottom=0;right=0;pointerEvents=1;" vertex="1" parent="QKTyw7EAt9zANaS0hbVl-343">
          <mxGeometry width="60" height="40" as="geometry">
            <mxRectangle width="60" height="40" as="alternateBounds" />
          </mxGeometry>
        </mxCell>
        <mxCell id="QKTyw7EAt9zANaS0hbVl-345" value="Iid" style="shape=partialRectangle;html=1;whiteSpace=wrap;connectable=0;strokeColor=inherit;overflow=hidden;fillColor=none;top=0;left=0;bottom=0;right=0;pointerEvents=1;" vertex="1" parent="QKTyw7EAt9zANaS0hbVl-343">
          <mxGeometry x="60" width="60" height="40" as="geometry">
            <mxRectangle width="60" height="40" as="alternateBounds" />
          </mxGeometry>
        </mxCell>
        <mxCell id="QKTyw7EAt9zANaS0hbVl-346" value="teaching" style="text;html=1;align=center;verticalAlign=middle;whiteSpace=wrap;rounded=0;" vertex="1" parent="1">
          <mxGeometry x="3420" y="890" width="60" height="30" as="geometry" />
        </mxCell>
        <mxCell id="QKTyw7EAt9zANaS0hbVl-352" value="" style="endArrow=none;dashed=1;html=1;dashPattern=1 3;strokeWidth=2;rounded=0;" edge="1" parent="1">
          <mxGeometry width="50" height="50" relative="1" as="geometry">
            <mxPoint x="3480" y="950" as="sourcePoint" />
            <mxPoint x="3540" y="950" as="targetPoint" />
          </mxGeometry>
        </mxCell>
        <mxCell id="QKTyw7EAt9zANaS0hbVl-353" value="" style="endArrow=none;dashed=1;html=1;dashPattern=1 3;strokeWidth=2;rounded=0;" edge="1" parent="1">
          <mxGeometry width="50" height="50" relative="1" as="geometry">
            <mxPoint x="3420" y="950" as="sourcePoint" />
            <mxPoint x="3480" y="950" as="targetPoint" />
          </mxGeometry>
        </mxCell>
        <mxCell id="QKTyw7EAt9zANaS0hbVl-354" value="" style="endArrow=none;html=1;rounded=0;" edge="1" parent="1">
          <mxGeometry width="50" height="50" relative="1" as="geometry">
            <mxPoint x="3450" y="955.95" as="sourcePoint" />
            <mxPoint x="3520" y="955.95" as="targetPoint" />
          </mxGeometry>
        </mxCell>
        <mxCell id="QKTyw7EAt9zANaS0hbVl-355" style="edgeStyle=orthogonalEdgeStyle;rounded=0;orthogonalLoop=1;jettySize=auto;html=1;entryX=0;entryY=0.5;entryDx=0;entryDy=0;" edge="1" parent="1" source="QKTyw7EAt9zANaS0hbVl-343" target="QKTyw7EAt9zANaS0hbVl-296">
          <mxGeometry relative="1" as="geometry">
            <Array as="points">
              <mxPoint x="3330" y="940" />
              <mxPoint x="3330" y="340" />
            </Array>
          </mxGeometry>
        </mxCell>
        <mxCell id="QKTyw7EAt9zANaS0hbVl-356" style="edgeStyle=orthogonalEdgeStyle;rounded=0;orthogonalLoop=1;jettySize=auto;html=1;entryX=0;entryY=0.5;entryDx=0;entryDy=0;" edge="1" parent="1" source="QKTyw7EAt9zANaS0hbVl-343" target="QKTyw7EAt9zANaS0hbVl-310">
          <mxGeometry relative="1" as="geometry">
            <Array as="points">
              <mxPoint x="3500" y="870" />
              <mxPoint x="3400" y="870" />
              <mxPoint x="3400" y="700" />
            </Array>
          </mxGeometry>
        </mxCell>
      </root>
    </mxGraphModel>
  </diagram>
</mxfile>
